{
	"asset":{
		"generator":"Khronos glTF Blender I/O v3.6.27",
		"version":"2.0"
	},
	"extensionsUsed":[
		"KHR_materials_specular",
		"KHR_materials_ior"
	],
	"scene":0,
	"scenes":[
		{
			"name":"Scene",
			"nodes":[
				1
			]
		}
	],
	"nodes":[
		{
			"mesh":0,
			"name":"Side-ExtenderMain.002",
			"scale":[
				1.0115642547607422,
				1,
				1
			],
			"translation":[
				-0.004021666944026947,
				5.880478382110596,
				-0.14518356323242188
			]
		},
		{
			"children":[
				0
			],
			"mesh":1,
			"name":"Machine-Main.002",
			"translation":[
				0.08447746932506561,
				0.847379207611084,
				-0.06806633621454239
			]
		}
	],
	"materials":[
		{
			"doubleSided":true,
			"name":"MultiColorSides.003",
			"pbrMetallicRoughness":{
				"baseColorTexture":{
					"index":0
				},
				"metallicFactor":0,
				"roughnessFactor":0.3650793433189392
			}
		},
		{
			"doubleSided":true,
			"name":"Screen.005",
			"pbrMetallicRoughness":{
				"baseColorFactor":[
					0.7991020083427429,
					0.8468727469444275,
					0.8307697772979736,
					1
				],
				"metallicFactor":0,
				"roughnessFactor":0.5
			}
		},
		{
			"doubleSided":true,
			"name":"MachineDefault.003",
			"pbrMetallicRoughness":{
				"baseColorFactor":[
					0.019999999552965164,
					0.019999999552965164,
					0.019999999552965164,
					1
				],
				"roughnessFactor":0.4291340112686157
			}
		},
		{
			"doubleSided":true,
			"extensions":{
				"KHR_materials_specular":{
					"specularColorFactor":[
						2.522496096201556,
						2.373588818467182,
						1.9045549450062198
					]
				},
				"KHR_materials_ior":{
					"ior":1.4500000476837158
				}
			},
			"name":"LuminousSideBars.003",
			"pbrMetallicRoughness":{
				"baseColorFactor":[
					1,
					0.7590267658233643,
					0,
					1
				],
				"metallicFactor":0,
				"roughnessFactor":0.6338582634925842
			}
		},
		{
			"doubleSided":true,
			"name":"MachinePlastic.003",
			"pbrMetallicRoughness":{
				"baseColorFactor":[
					0.05000000074505806,
					0.05000000074505806,
					0.05000000074505806,
					1
				],
				"metallicFactor":0,
				"roughnessFactor":0.44212597608566284
			}
		},
		{
			"doubleSided":true,
			"name":"Buttons.004",
			"pbrMetallicRoughness":{
				"baseColorFactor":[
					1,
					0.0017881096573546529,
					0.0012975562131032348,
					1
				],
				"metallicFactor":0,
				"roughnessFactor":0.17716535925865173
			}
		},
		{
			"doubleSided":true,
			"name":"MachineConsole.003",
			"pbrMetallicRoughness":{
				"baseColorFactor":[
					1,
					0.0699659064412117,
					0.0006910773226991296,
					1
				],
				"metallicFactor":0,
				"roughnessFactor":0.5551180839538574
			}
		},
		{
			"doubleSided":true,
			"name":"CoinSlotPlastic.003",
			"pbrMetallicRoughness":{
				"baseColorFactor":[
					0.9908886551856995,
					0.09713637828826904,
					0.09603983163833618,
					1
				],
				"metallicFactor":0,
				"roughnessFactor":0.23228345811367035
			}
		}
	],
	"meshes":[
		{
			"name":"Plane.005",
			"primitives":[
				{
					"attributes":{
						"POSITION":0,
						"NORMAL":1,
						"TEXCOORD_0":2
					},
					"indices":3,
					"material":0
				}
			]
		},
		{
			"name":"Cube.010",
			"primitives":[
				{
					"attributes":{
						"POSITION":4,
						"NORMAL":5,
						"TEXCOORD_0":6
					},
					"indices":7,
					"material":1
				},
				{
					"attributes":{
						"POSITION":8,
						"NORMAL":9,
						"TEXCOORD_0":10
					},
					"indices":11,
					"material":2
				},
				{
					"attributes":{
						"POSITION":12,
						"NORMAL":13,
						"TEXCOORD_0":14
					},
					"indices":15,
					"material":3
				},
				{
					"attributes":{
						"POSITION":16,
						"NORMAL":17,
						"TEXCOORD_0":18
					},
					"indices":19,
					"material":4
				},
				{
					"attributes":{
						"POSITION":20,
						"NORMAL":21,
						"TEXCOORD_0":22
					},
					"indices":23,
					"material":5
				},
				{
					"attributes":{
						"POSITION":24,
						"NORMAL":25,
						"TEXCOORD_0":26
					},
					"indices":27,
					"material":6
				},
				{
					"attributes":{
						"POSITION":28,
						"NORMAL":29,
						"TEXCOORD_0":30
					},
					"indices":31,
					"material":7
				}
			]
		}
	],
	"textures":[
		{
			"sampler":0,
			"source":0
		}
	],
	"images":[
		{
			"bufferView":4,
			"mimeType":"image/png",
			"name":"MachineSideColour"
		}
	],
	"accessors":[
		{
			"bufferView":0,
			"componentType":5126,
			"count":124,
			"max":[
				0.7539330124855042,
				-0.7733435034751892,
				1.3558000326156616
			],
			"min":[
				-1.1024433374404907,
				-4.842809677124023,
				-1.0654329061508179
			],
			"type":"VEC3"
		},
		{
			"bufferView":1,
			"componentType":5126,
			"count":124,
			"type":"VEC3"
		},
		{
			"bufferView":2,
			"componentType":5126,
			"count":124,
			"type":"VEC2"
		},
		{
			"bufferView":3,
			"componentType":5123,
			"count":228,
			"type":"SCALAR"
		},
		{
			"bufferView":5,
			"componentType":5126,
			"count":21,
			"max":[
				0.6401247978210449,
				4.738357067108154,
				0.884485125541687
			],
			"min":[
				0.5275800824165344,
				2.5456206798553467,
				-0.8853636980056763
			],
			"type":"VEC3"
		},
		{
			"bufferView":6,
			"componentType":5126,
			"count":21,
			"type":"VEC3"
		},
		{
			"bufferView":7,
			"componentType":5126,
			"count":21,
			"type":"VEC2"
		},
		{
			"bufferView":8,
			"componentType":5123,
			"count":51,
			"type":"SCALAR"
		},
		{
			"bufferView":9,
			"componentType":5126,
			"count":2324,
			"max":[
				1.3479715585708618,
				5.110461711883545,
				1.054927945137024
			],
			"min":[
				-1.0937713384628296,
				0.007626533508300781,
				-1.054927945137024
			],
			"type":"VEC3"
		},
		{
			"bufferView":10,
			"componentType":5126,
			"count":2324,
			"type":"VEC3"
		},
		{
			"bufferView":11,
			"componentType":5126,
			"count":2324,
			"type":"VEC2"
		},
		{
			"bufferView":12,
			"componentType":5123,
			"count":5280,
			"type":"SCALAR"
		},
		{
			"bufferView":13,
			"componentType":5126,
			"count":140,
			"max":[
				1.4101136922836304,
				2.43491530418396,
				1.054927945137024
			],
			"min":[
				0.6401212215423584,
				0.007626533508300781,
				-1.054927945137024
			],
			"type":"VEC3"
		},
		{
			"bufferView":14,
			"componentType":5126,
			"count":140,
			"type":"VEC3"
		},
		{
			"bufferView":15,
			"componentType":5126,
			"count":140,
			"type":"VEC2"
		},
		{
			"bufferView":16,
			"componentType":5123,
			"count":282,
			"type":"SCALAR"
		},
		{
			"bufferView":17,
			"componentType":5126,
			"count":927,
			"max":[
				1.1092275381088257,
				1.0063656568527222,
				0.5053446292877197
			],
			"min":[
				1.0163296461105347,
				0.2898660898208618,
				-0.5053446292877197
			],
			"type":"VEC3"
		},
		{
			"bufferView":18,
			"componentType":5126,
			"count":927,
			"type":"VEC3"
		},
		{
			"bufferView":19,
			"componentType":5126,
			"count":927,
			"type":"VEC2"
		},
		{
			"bufferView":20,
			"componentType":5123,
			"count":2370,
			"type":"SCALAR"
		},
		{
			"bufferView":21,
			"componentType":5126,
			"count":440,
			"max":[
				1.2489423751831055,
				2.6060662269592285,
				0.6193634867668152
			],
			"min":[
				0.706922709941864,
				2.1200039386749268,
				-0.7487860321998596
			],
			"type":"VEC3"
		},
		{
			"bufferView":22,
			"componentType":5126,
			"count":440,
			"type":"VEC3"
		},
		{
			"bufferView":23,
			"componentType":5126,
			"count":440,
			"type":"VEC2"
		},
		{
			"bufferView":24,
			"componentType":5123,
			"count":570,
			"type":"SCALAR"
		},
		{
			"bufferView":25,
			"componentType":5126,
			"count":19,
			"max":[
				1.3479714393615723,
				1.9995001554489136,
				0.884485125541687
			],
			"min":[
				1.3479714393615723,
				1.5995001792907715,
				-0.884485125541687
			],
			"type":"VEC3"
		},
		{
			"bufferView":26,
			"componentType":5126,
			"count":19,
			"type":"VEC3"
		},
		{
			"bufferView":27,
			"componentType":5126,
			"count":19,
			"type":"VEC2"
		},
		{
			"bufferView":28,
			"componentType":5123,
			"count":51,
			"type":"SCALAR"
		},
		{
			"bufferView":29,
			"componentType":5126,
			"count":92,
			"max":[
				1.1087020635604858,
				0.8761881589889526,
				0.24047094583511353
			],
			"min":[
				1.099411129951477,
				0.7671418190002441,
				-0.24047094583511353
			],
			"type":"VEC3"
		},
		{
			"bufferView":30,
			"componentType":5126,
			"count":92,
			"type":"VEC3"
		},
		{
			"bufferView":31,
			"componentType":5126,
			"count":92,
			"type":"VEC2"
		},
		{
			"bufferView":32,
			"componentType":5123,
			"count":264,
			"type":"SCALAR"
		}
	],
	"bufferViews":[
		{
			"buffer":0,
			"byteLength":1488,
			"byteOffset":0,
			"target":34962
		},
		{
			"buffer":0,
			"byteLength":1488,
			"byteOffset":1488,
			"target":34962
		},
		{
			"buffer":0,
			"byteLength":992,
			"byteOffset":2976,
			"target":34962
		},
		{
			"buffer":0,
			"byteLength":456,
			"byteOffset":3968,
			"target":34963
		},
		{
			"buffer":0,
			"byteLength":55212,
			"byteOffset":4424
		},
		{
			"buffer":0,
			"byteLength":252,
			"byteOffset":59636,
			"target":34962
		},
		{
			"buffer":0,
			"byteLength":252,
			"byteOffset":59888,
			"target":34962
		},
		{
			"buffer":0,
			"byteLength":168,
			"byteOffset":60140,
			"target":34962
		},
		{
			"buffer":0,
			"byteLength":102,
			"byteOffset":60308,
			"target":34963
		},
		{
			"buffer":0,
			"byteLength":27888,
			"byteOffset":60412,
			"target":34962
		},
		{
			"buffer":0,
			"byteLength":27888,
			"byteOffset":88300,
			"target":34962
		},
		{
			"buffer":0,
			"byteLength":18592,
			"byteOffset":116188,
			"target":34962
		},
		{
			"buffer":0,
			"byteLength":10560,
			"byteOffset":134780,
			"target":34963
		},
		{
			"buffer":0,
			"byteLength":1680,
			"byteOffset":145340,
			"target":34962
		},
		{
			"buffer":0,
			"byteLength":1680,
			"byteOffset":147020,
			"target":34962
		},
		{
			"buffer":0,
			"byteLength":1120,
			"byteOffset":148700,
			"target":34962
		},
		{
			"buffer":0,
			"byteLength":564,
			"byteOffset":149820,
			"target":34963
		},
		{
			"buffer":0,
			"byteLength":11124,
			"byteOffset":150384,
			"target":34962
		},
		{
			"buffer":0,
			"byteLength":11124,
			"byteOffset":161508,
			"target":34962
		},
		{
			"buffer":0,
			"byteLength":7416,
			"byteOffset":172632,
			"target":34962
		},
		{
			"buffer":0,
			"byteLength":4740,
			"byteOffset":180048,
			"target":34963
		},
		{
			"buffer":0,
			"byteLength":5280,
			"byteOffset":184788,
			"target":34962
		},
		{
			"buffer":0,
			"byteLength":5280,
			"byteOffset":190068,
			"target":34962
		},
		{
			"buffer":0,
			"byteLength":3520,
			"byteOffset":195348,
			"target":34962
		},
		{
			"buffer":0,
			"byteLength":1140,
			"byteOffset":198868,
			"target":34963
		},
		{
			"buffer":0,
			"byteLength":228,
			"byteOffset":200008,
			"target":34962
		},
		{
			"buffer":0,
			"byteLength":228,
			"byteOffset":200236,
			"target":34962
		},
		{
			"buffer":0,
			"byteLength":152,
			"byteOffset":200464,
			"target":34962
		},
		{
			"buffer":0,
			"byteLength":102,
			"byteOffset":200616,
			"target":34963
		},
		{
			"buffer":0,
			"byteLength":1104,
			"byteOffset":200720,
			"target":34962
		},
		{
			"buffer":0,
			"byteLength":1104,
			"byteOffset":201824,
			"target":34962
		},
		{
			"buffer":0,
			"byteLength":736,
			"byteOffset":202928,
			"target":34962
		},
		{
			"buffer":0,
			"byteLength":528,
			"byteOffset":203664,
			"target":34963
		}
	],
	"samplers":[
		{
			"magFilter":9729,
			"minFilter":9987
		}
	],
	"buffers":[
		{
			"byteLength":204192,
			"uri":"data:application/octet-stream;base64,"
		}
	]
}
