{
	"asset":{
		"generator":"Khronos glTF Blender I/O v3.6.27",
		"version":"2.0"
	},
	"scene":0,
	"scenes":[
		{
			"name":"Scene",
			"nodes":[
				0
			]
		}
	],
	"nodes":[
		{
			"mesh":0,
			"name":"Box-Outside.001",
			"rotation":[
				0,
				0.2137386053800583,
				0,
				0.9768908619880676
			],
			"scale":[
				1.0101406574249268,
				1.0101406574249268,
				1.0101406574249268
			],
			"translation":[
				-4.187439918518066,
				1.8632493019104004,
				-7.17254638671875
			]
		}
	],
	"materials":[
		{
			"doubleSided":true,
			"name":"BoxCorner",
			"pbrMetallicRoughness":{
				"baseColorFactor":[
					0.32777807116508484,
					0.10702298581600189,
					0.03688947856426239,
					1
				],
				"metallicFactor":0
			}
		},
		{
			"doubleSided":true,
			"name":"BoxMetal",
			"pbrMetallicRoughness":{
				"baseColorFactor":[
					0.16996268928050995,
					0.1962849348783493,
					0.21403515338897705,
					1
				],
				"roughnessFactor":0.4444444477558136
			}
		},
		{
			"doubleSided":true,
			"name":"BoxPlanks",
			"pbrMetallicRoughness":{
				"baseColorFactor":[
					0.6266626119613647,
					0.23915770649909973,
					0.06828033179044724,
					1
				],
				"metallicFactor":0,
				"roughnessFactor":0.5
			}
		}
	],
	"meshes":[
		{
			"name":"Cube.007",
			"primitives":[
				{
					"attributes":{
						"POSITION":0,
						"NORMAL":1,
						"TEXCOORD_0":2
					},
					"indices":3,
					"material":0
				},
				{
					"attributes":{
						"POSITION":4,
						"NORMAL":5,
						"TEXCOORD_0":6
					},
					"indices":7,
					"material":1
				},
				{
					"attributes":{
						"POSITION":8,
						"NORMAL":9,
						"TEXCOORD_0":10
					},
					"indices":11,
					"material":2
				}
			]
		}
	],
	"accessors":[
		{
			"bufferView":0,
			"componentType":5126,
			"count":210,
			"max":[
				1.2422313690185547,
				0.9188057780265808,
				1.2406033277511597
			],
			"min":[
				-1.2479114532470703,
				-0.9603933691978455,
				-1.2485839128494263
			],
			"type":"VEC3"
		},
		{
			"bufferView":1,
			"componentType":5126,
			"count":210,
			"type":"VEC3"
		},
		{
			"bufferView":2,
			"componentType":5126,
			"count":210,
			"type":"VEC2"
		},
		{
			"bufferView":3,
			"componentType":5123,
			"count":333,
			"type":"SCALAR"
		},
		{
			"bufferView":4,
			"componentType":5126,
			"count":546,
			"max":[
				1.2634243965148926,
				0.9437393546104431,
				1.2615811824798584
			],
			"min":[
				-1.266219973564148,
				-0.9859781861305237,
				-1.2671210765838623
			],
			"type":"VEC3"
		},
		{
			"bufferView":5,
			"componentType":5126,
			"count":546,
			"type":"VEC3"
		},
		{
			"bufferView":6,
			"componentType":5126,
			"count":546,
			"type":"VEC2"
		},
		{
			"bufferView":7,
			"componentType":5123,
			"count":816,
			"type":"SCALAR"
		},
		{
			"bufferView":8,
			"componentType":5126,
			"count":698,
			"max":[
				1.1069238185882568,
				0.8552305102348328,
				1.1680718660354614
			],
			"min":[
				-1.108701229095459,
				-0.896818220615387,
				-1.164011836051941
			],
			"type":"VEC3"
		},
		{
			"bufferView":9,
			"componentType":5126,
			"count":698,
			"type":"VEC3"
		},
		{
			"bufferView":10,
			"componentType":5126,
			"count":698,
			"type":"VEC2"
		},
		{
			"bufferView":11,
			"componentType":5123,
			"count":1068,
			"type":"SCALAR"
		}
	],
	"bufferViews":[
		{
			"buffer":0,
			"byteLength":2520,
			"byteOffset":0,
			"target":34962
		},
		{
			"buffer":0,
			"byteLength":2520,
			"byteOffset":2520,
			"target":34962
		},
		{
			"buffer":0,
			"byteLength":1680,
			"byteOffset":5040,
			"target":34962
		},
		{
			"buffer":0,
			"byteLength":666,
			"byteOffset":6720,
			"target":34963
		},
		{
			"buffer":0,
			"byteLength":6552,
			"byteOffset":7388,
			"target":34962
		},
		{
			"buffer":0,
			"byteLength":6552,
			"byteOffset":13940,
			"target":34962
		},
		{
			"buffer":0,
			"byteLength":4368,
			"byteOffset":20492,
			"target":34962
		},
		{
			"buffer":0,
			"byteLength":1632,
			"byteOffset":24860,
			"target":34963
		},
		{
			"buffer":0,
			"byteLength":8376,
			"byteOffset":26492,
			"target":34962
		},
		{
			"buffer":0,
			"byteLength":8376,
			"byteOffset":34868,
			"target":34962
		},
		{
			"buffer":0,
			"byteLength":5584,
			"byteOffset":43244,
			"target":34962
		},
		{
			"buffer":0,
			"byteLength":2136,
			"byteOffset":48828,
			"target":34963
		}
	],
	"buffers":[
		{
			"byteLength":50964,
			"uri":"data:application/octet-stream;base64,"
		}
	]
}
