{
	"asset":{
		"generator":"Khronos glTF Blender I/O v3.6.27",
		"version":"2.0"
	},
	"extensionsUsed":[
		"KHR_materials_specular",
		"KHR_materials_ior"
	],
	"scene":0,
	"scenes":[
		{
			"name":"Scene",
			"nodes":[
				0,
				1,
				2,
				3,
				4,
				5,
				6
			]
		}
	],
	"nodes":[
		{
			"mesh":0,
			"name":"hexagon",
			"scale":[
				5.271235942840576,
				4.424496173858643,
				5.271235942840576
			]
		},
		{
			"mesh":1,
			"name":"hexagon.001",
			"scale":[
				5.271235942840576,
				4.424496173858643,
				5.271235942840576
			],
			"translation":[
				-4.650000095367432,
				0,
				-8.050000190734863
			]
		},
		{
			"mesh":2,
			"name":"hexagon.002",
			"scale":[
				5.271235942840576,
				4.424496173858643,
				5.271235942840576
			],
			"translation":[
				-4.650000095367432,
				0,
				8.050000190734863
			]
		},
		{
			"mesh":3,
			"name":"hexagon.003",
			"scale":[
				5.271235942840576,
				4.424496173858643,
				5.271235942840576
			],
			"translation":[
				4.650000095367432,
				0,
				-8.050000190734863
			]
		},
		{
			"mesh":4,
			"name":"hexagon.004",
			"scale":[
				5.271235942840576,
				4.424496173858643,
				5.271235942840576
			],
			"translation":[
				4.605000019073486,
				0,
				8.050000190734863
			]
		},
		{
			"mesh":5,
			"name":"hexagon.005",
			"scale":[
				5.271235942840576,
				4.424496173858643,
				5.271235942840576
			],
			"translation":[
				-9.300000190734863,
				0,
				0
			]
		},
		{
			"mesh":6,
			"name":"hexagon.006",
			"scale":[
				5.271235942840576,
				4.424496173858643,
				5.271235942840576
			],
			"translation":[
				9.300000190734863,
				0,
				0
			]
		}
	],
	"materials":[
		{
			"doubleSided":true,
			"extensions":{
				"KHR_materials_specular":{
					"specularColorFactor":[
						1.48443252131297,
						1.48443252131297,
						1.48443252131297
					]
				},
				"KHR_materials_ior":{
					"ior":1.4500000476837158
				}
			},
			"name":"Snow",
			"pbrMetallicRoughness":{
				"baseColorFactor":[
					0.37928307056427,
					0.4442982077598572,
					0.47699040174484253,
					1
				],
				"metallicFactor":0,
				"roughnessFactor":0.800000011920929
			}
		},
		{
			"doubleSided":true,
			"name":"Ground",
			"pbrMetallicRoughness":{
				"baseColorFactor":[
					0.07036008685827255,
					0.042311377823352814,
					0.025186866521835327,
					1
				],
				"metallicFactor":0,
				"roughnessFactor":0.5
			}
		}
	],
	"meshes":[
		{
			"name":"Circle",
			"primitives":[
				{
					"attributes":{
						"POSITION":0,
						"NORMAL":1,
						"TEXCOORD_0":2
					},
					"indices":3,
					"material":0
				},
				{
					"attributes":{
						"POSITION":4,
						"NORMAL":5,
						"TEXCOORD_0":6
					},
					"indices":7,
					"material":1
				}
			]
		},
		{
			"name":"Circle.008",
			"primitives":[
				{
					"attributes":{
						"POSITION":8,
						"NORMAL":9,
						"TEXCOORD_0":10
					},
					"indices":3,
					"material":0
				},
				{
					"attributes":{
						"POSITION":11,
						"NORMAL":12,
						"TEXCOORD_0":13
					},
					"indices":7,
					"material":1
				}
			]
		},
		{
			"name":"Circle.009",
			"primitives":[
				{
					"attributes":{
						"POSITION":14,
						"NORMAL":15,
						"TEXCOORD_0":16
					},
					"indices":3,
					"material":0
				},
				{
					"attributes":{
						"POSITION":17,
						"NORMAL":18,
						"TEXCOORD_0":19
					},
					"indices":7,
					"material":1
				}
			]
		},
		{
			"name":"Circle.010",
			"primitives":[
				{
					"attributes":{
						"POSITION":20,
						"NORMAL":21,
						"TEXCOORD_0":22
					},
					"indices":3,
					"material":0
				},
				{
					"attributes":{
						"POSITION":23,
						"NORMAL":24,
						"TEXCOORD_0":25
					},
					"indices":7,
					"material":1
				}
			]
		},
		{
			"name":"Circle.011",
			"primitives":[
				{
					"attributes":{
						"POSITION":26,
						"NORMAL":27,
						"TEXCOORD_0":28
					},
					"indices":3,
					"material":0
				},
				{
					"attributes":{
						"POSITION":29,
						"NORMAL":30,
						"TEXCOORD_0":31
					},
					"indices":7,
					"material":1
				}
			]
		},
		{
			"name":"Circle.005",
			"primitives":[
				{
					"attributes":{
						"POSITION":32,
						"NORMAL":33,
						"TEXCOORD_0":34
					},
					"indices":3,
					"material":0
				},
				{
					"attributes":{
						"POSITION":35,
						"NORMAL":36,
						"TEXCOORD_0":37
					},
					"indices":7,
					"material":1
				}
			]
		},
		{
			"name":"Circle.006",
			"primitives":[
				{
					"attributes":{
						"POSITION":38,
						"NORMAL":39,
						"TEXCOORD_0":40
					},
					"indices":3,
					"material":0
				},
				{
					"attributes":{
						"POSITION":41,
						"NORMAL":42,
						"TEXCOORD_0":43
					},
					"indices":7,
					"material":1
				}
			]
		}
	],
	"accessors":[
		{
			"bufferView":0,
			"componentType":5126,
			"count":30,
			"max":[
				0.7955067157745361,
				0.19525575637817383,
				0.9185720086097717
			],
			"min":[
				-0.7955067157745361,
				0.13400636613368988,
				-0.9185720086097717
			],
			"type":"VEC3"
		},
		{
			"bufferView":1,
			"componentType":5126,
			"count":30,
			"type":"VEC3"
		},
		{
			"bufferView":2,
			"componentType":5126,
			"count":30,
			"type":"VEC2"
		},
		{
			"bufferView":3,
			"componentType":5123,
			"count":48,
			"type":"SCALAR"
		},
		{
			"bufferView":4,
			"componentType":5126,
			"count":42,
			"max":[
				0.8660253882408142,
				0.13400636613368988,
				1
			],
			"min":[
				-0.8660253882408142,
				0,
				-1
			],
			"type":"VEC3"
		},
		{
			"bufferView":5,
			"componentType":5126,
			"count":42,
			"type":"VEC3"
		},
		{
			"bufferView":6,
			"componentType":5126,
			"count":42,
			"type":"VEC2"
		},
		{
			"bufferView":7,
			"componentType":5123,
			"count":84,
			"type":"SCALAR"
		},
		{
			"bufferView":8,
			"componentType":5126,
			"count":30,
			"max":[
				0.7955067157745361,
				0.19525575637817383,
				0.9185720086097717
			],
			"min":[
				-0.7955067157745361,
				0.13400636613368988,
				-0.9185720086097717
			],
			"type":"VEC3"
		},
		{
			"bufferView":9,
			"componentType":5126,
			"count":30,
			"type":"VEC3"
		},
		{
			"bufferView":10,
			"componentType":5126,
			"count":30,
			"type":"VEC2"
		},
		{
			"bufferView":11,
			"componentType":5126,
			"count":42,
			"max":[
				0.8660253882408142,
				0.13400636613368988,
				1
			],
			"min":[
				-0.8660253882408142,
				0,
				-1
			],
			"type":"VEC3"
		},
		{
			"bufferView":12,
			"componentType":5126,
			"count":42,
			"type":"VEC3"
		},
		{
			"bufferView":13,
			"componentType":5126,
			"count":42,
			"type":"VEC2"
		},
		{
			"bufferView":14,
			"componentType":5126,
			"count":30,
			"max":[
				0.7955067157745361,
				0.19525575637817383,
				0.9185720086097717
			],
			"min":[
				-0.7955067157745361,
				0.13400636613368988,
				-0.9185720086097717
			],
			"type":"VEC3"
		},
		{
			"bufferView":15,
			"componentType":5126,
			"count":30,
			"type":"VEC3"
		},
		{
			"bufferView":16,
			"componentType":5126,
			"count":30,
			"type":"VEC2"
		},
		{
			"bufferView":17,
			"componentType":5126,
			"count":42,
			"max":[
				0.8660253882408142,
				0.13400636613368988,
				1
			],
			"min":[
				-0.8660253882408142,
				0,
				-1
			],
			"type":"VEC3"
		},
		{
			"bufferView":18,
			"componentType":5126,
			"count":42,
			"type":"VEC3"
		},
		{
			"bufferView":19,
			"componentType":5126,
			"count":42,
			"type":"VEC2"
		},
		{
			"bufferView":20,
			"componentType":5126,
			"count":30,
			"max":[
				0.7955067157745361,
				0.19525575637817383,
				0.9185720086097717
			],
			"min":[
				-0.7955067157745361,
				0.13400636613368988,
				-0.9185720086097717
			],
			"type":"VEC3"
		},
		{
			"bufferView":21,
			"componentType":5126,
			"count":30,
			"type":"VEC3"
		},
		{
			"bufferView":22,
			"componentType":5126,
			"count":30,
			"type":"VEC2"
		},
		{
			"bufferView":23,
			"componentType":5126,
			"count":42,
			"max":[
				0.8660253882408142,
				0.13400636613368988,
				1
			],
			"min":[
				-0.8660253882408142,
				0,
				-1
			],
			"type":"VEC3"
		},
		{
			"bufferView":24,
			"componentType":5126,
			"count":42,
			"type":"VEC3"
		},
		{
			"bufferView":25,
			"componentType":5126,
			"count":42,
			"type":"VEC2"
		},
		{
			"bufferView":26,
			"componentType":5126,
			"count":30,
			"max":[
				0.7955067157745361,
				0.19525575637817383,
				0.9185720086097717
			],
			"min":[
				-0.7955067157745361,
				0.13400636613368988,
				-0.9185720086097717
			],
			"type":"VEC3"
		},
		{
			"bufferView":27,
			"componentType":5126,
			"count":30,
			"type":"VEC3"
		},
		{
			"bufferView":28,
			"componentType":5126,
			"count":30,
			"type":"VEC2"
		},
		{
			"bufferView":29,
			"componentType":5126,
			"count":42,
			"max":[
				0.8660253882408142,
				0.13400636613368988,
				1
			],
			"min":[
				-0.8660253882408142,
				0,
				-1
			],
			"type":"VEC3"
		},
		{
			"bufferView":30,
			"componentType":5126,
			"count":42,
			"type":"VEC3"
		},
		{
			"bufferView":31,
			"componentType":5126,
			"count":42,
			"type":"VEC2"
		},
		{
			"bufferView":32,
			"componentType":5126,
			"count":30,
			"max":[
				0.7955067157745361,
				0.19525575637817383,
				0.9185720086097717
			],
			"min":[
				-0.7955067157745361,
				0.13400636613368988,
				-0.9185720086097717
			],
			"type":"VEC3"
		},
		{
			"bufferView":33,
			"componentType":5126,
			"count":30,
			"type":"VEC3"
		},
		{
			"bufferView":34,
			"componentType":5126,
			"count":30,
			"type":"VEC2"
		},
		{
			"bufferView":35,
			"componentType":5126,
			"count":42,
			"max":[
				0.8660253882408142,
				0.13400636613368988,
				1
			],
			"min":[
				-0.8660253882408142,
				0,
				-1
			],
			"type":"VEC3"
		},
		{
			"bufferView":36,
			"componentType":5126,
			"count":42,
			"type":"VEC3"
		},
		{
			"bufferView":37,
			"componentType":5126,
			"count":42,
			"type":"VEC2"
		},
		{
			"bufferView":38,
			"componentType":5126,
			"count":30,
			"max":[
				0.7955067157745361,
				0.19525575637817383,
				0.9185720086097717
			],
			"min":[
				-0.7955067157745361,
				0.13400636613368988,
				-0.9185720086097717
			],
			"type":"VEC3"
		},
		{
			"bufferView":39,
			"componentType":5126,
			"count":30,
			"type":"VEC3"
		},
		{
			"bufferView":40,
			"componentType":5126,
			"count":30,
			"type":"VEC2"
		},
		{
			"bufferView":41,
			"componentType":5126,
			"count":42,
			"max":[
				0.8660253882408142,
				0.13400636613368988,
				1
			],
			"min":[
				-0.8660253882408142,
				0,
				-1
			],
			"type":"VEC3"
		},
		{
			"bufferView":42,
			"componentType":5126,
			"count":42,
			"type":"VEC3"
		},
		{
			"bufferView":43,
			"componentType":5126,
			"count":42,
			"type":"VEC2"
		}
	],
	"bufferViews":[
		{
			"buffer":0,
			"byteLength":360,
			"byteOffset":0,
			"target":34962
		},
		{
			"buffer":0,
			"byteLength":360,
			"byteOffset":360,
			"target":34962
		},
		{
			"buffer":0,
			"byteLength":240,
			"byteOffset":720,
			"target":34962
		},
		{
			"buffer":0,
			"byteLength":96,
			"byteOffset":960,
			"target":34963
		},
		{
			"buffer":0,
			"byteLength":504,
			"byteOffset":1056,
			"target":34962
		},
		{
			"buffer":0,
			"byteLength":504,
			"byteOffset":1560,
			"target":34962
		},
		{
			"buffer":0,
			"byteLength":336,
			"byteOffset":2064,
			"target":34962
		},
		{
			"buffer":0,
			"byteLength":168,
			"byteOffset":2400,
			"target":34963
		},
		{
			"buffer":0,
			"byteLength":360,
			"byteOffset":2568,
			"target":34962
		},
		{
			"buffer":0,
			"byteLength":360,
			"byteOffset":2928,
			"target":34962
		},
		{
			"buffer":0,
			"byteLength":240,
			"byteOffset":3288,
			"target":34962
		},
		{
			"buffer":0,
			"byteLength":504,
			"byteOffset":3528,
			"target":34962
		},
		{
			"buffer":0,
			"byteLength":504,
			"byteOffset":4032,
			"target":34962
		},
		{
			"buffer":0,
			"byteLength":336,
			"byteOffset":4536,
			"target":34962
		},
		{
			"buffer":0,
			"byteLength":360,
			"byteOffset":4872,
			"target":34962
		},
		{
			"buffer":0,
			"byteLength":360,
			"byteOffset":5232,
			"target":34962
		},
		{
			"buffer":0,
			"byteLength":240,
			"byteOffset":5592,
			"target":34962
		},
		{
			"buffer":0,
			"byteLength":504,
			"byteOffset":5832,
			"target":34962
		},
		{
			"buffer":0,
			"byteLength":504,
			"byteOffset":6336,
			"target":34962
		},
		{
			"buffer":0,
			"byteLength":336,
			"byteOffset":6840,
			"target":34962
		},
		{
			"buffer":0,
			"byteLength":360,
			"byteOffset":7176,
			"target":34962
		},
		{
			"buffer":0,
			"byteLength":360,
			"byteOffset":7536,
			"target":34962
		},
		{
			"buffer":0,
			"byteLength":240,
			"byteOffset":7896,
			"target":34962
		},
		{
			"buffer":0,
			"byteLength":504,
			"byteOffset":8136,
			"target":34962
		},
		{
			"buffer":0,
			"byteLength":504,
			"byteOffset":8640,
			"target":34962
		},
		{
			"buffer":0,
			"byteLength":336,
			"byteOffset":9144,
			"target":34962
		},
		{
			"buffer":0,
			"byteLength":360,
			"byteOffset":9480,
			"target":34962
		},
		{
			"buffer":0,
			"byteLength":360,
			"byteOffset":9840,
			"target":34962
		},
		{
			"buffer":0,
			"byteLength":240,
			"byteOffset":10200,
			"target":34962
		},
		{
			"buffer":0,
			"byteLength":504,
			"byteOffset":10440,
			"target":34962
		},
		{
			"buffer":0,
			"byteLength":504,
			"byteOffset":10944,
			"target":34962
		},
		{
			"buffer":0,
			"byteLength":336,
			"byteOffset":11448,
			"target":34962
		},
		{
			"buffer":0,
			"byteLength":360,
			"byteOffset":11784,
			"target":34962
		},
		{
			"buffer":0,
			"byteLength":360,
			"byteOffset":12144,
			"target":34962
		},
		{
			"buffer":0,
			"byteLength":240,
			"byteOffset":12504,
			"target":34962
		},
		{
			"buffer":0,
			"byteLength":504,
			"byteOffset":12744,
			"target":34962
		},
		{
			"buffer":0,
			"byteLength":504,
			"byteOffset":13248,
			"target":34962
		},
		{
			"buffer":0,
			"byteLength":336,
			"byteOffset":13752,
			"target":34962
		},
		{
			"buffer":0,
			"byteLength":360,
			"byteOffset":14088,
			"target":34962
		},
		{
			"buffer":0,
			"byteLength":360,
			"byteOffset":14448,
			"target":34962
		},
		{
			"buffer":0,
			"byteLength":240,
			"byteOffset":14808,
			"target":34962
		},
		{
			"buffer":0,
			"byteLength":504,
			"byteOffset":15048,
			"target":34962
		},
		{
			"buffer":0,
			"byteLength":504,
			"byteOffset":15552,
			"target":34962
		},
		{
			"buffer":0,
			"byteLength":336,
			"byteOffset":16056,
			"target":34962
		}
	],
	"buffers":[
		{
			"byteLength":16392,
			"uri":"data:application/octet-stream;base64,"
		}
	]
}
