{
	"asset":{
		"generator":"Khronos glTF Blender I/O v3.6.27",
		"version":"2.0"
	},
	"scene":0,
	"scenes":[
		{
			"name":"Scene",
			"nodes":[
				0
			]
		}
	],
	"nodes":[
		{
			"mesh":0,
			"name":"Island",
			"scale":[
				12.275090217590332,
				12.275090217590332,
				12.275090217590332
			]
		}
	],
	"materials":[
		{
			"doubleSided":true,
			"name":"Snow",
			"pbrMetallicRoughness":{
				"baseColorFactor":[
					0.800000011920929,
					0.800000011920929,
					0.800000011920929,
					1
				],
				"metallicFactor":0,
				"roughnessFactor":0.5
			}
		},
		{
			"doubleSided":true,
			"name":"Ground",
			"pbrMetallicRoughness":{
				"baseColorFactor":[
					0.07036008685827255,
					0.042311377823352814,
					0.025186866521835327,
					1
				],
				"metallicFactor":0,
				"roughnessFactor":0.5
			}
		}
	],
	"meshes":[
		{
			"name":"Roundcube.007",
			"primitives":[
				{
					"attributes":{
						"POSITION":0,
						"NORMAL":1
					},
					"indices":2,
					"material":0
				},
				{
					"attributes":{
						"POSITION":3,
						"NORMAL":4
					},
					"indices":5,
					"material":1
				}
			]
		}
	],
	"accessors":[
		{
			"bufferView":0,
			"componentType":5126,
			"count":1510,
			"max":[
				0.9956271052360535,
				0.32237380743026733,
				0.9998769760131836
			],
			"min":[
				-0.9956258535385132,
				0.14503704011440277,
				-0.9956256151199341
			],
			"type":"VEC3"
		},
		{
			"bufferView":1,
			"componentType":5126,
			"count":1510,
			"type":"VEC3"
		},
		{
			"bufferView":2,
			"componentType":5123,
			"count":3012,
			"type":"SCALAR"
		},
		{
			"bufferView":3,
			"componentType":5126,
			"count":2668,
			"max":[
				0.9895336627960205,
				0.1945357769727707,
				0.9958096146583557
			],
			"min":[
				-0.9895434975624084,
				-0.5127542614936829,
				-0.9906958937644958
			],
			"type":"VEC3"
		},
		{
			"bufferView":4,
			"componentType":5126,
			"count":2668,
			"type":"VEC3"
		},
		{
			"bufferView":5,
			"componentType":5123,
			"count":4008,
			"type":"SCALAR"
		}
	],
	"bufferViews":[
		{
			"buffer":0,
			"byteLength":18120,
			"byteOffset":0,
			"target":34962
		},
		{
			"buffer":0,
			"byteLength":18120,
			"byteOffset":18120,
			"target":34962
		},
		{
			"buffer":0,
			"byteLength":6024,
			"byteOffset":36240,
			"target":34963
		},
		{
			"buffer":0,
			"byteLength":32016,
			"byteOffset":42264,
			"target":34962
		},
		{
			"buffer":0,
			"byteLength":32016,
			"byteOffset":74280,
			"target":34962
		},
		{
			"buffer":0,
			"byteLength":8016,
			"byteOffset":106296,
			"target":34963
		}
	],
	"buffers":[
		{
			"byteLength":114312,
			"uri":"data:application/octet-stream;base64,"
		}
	]
}
