{
	"asset":{
		"generator":"Khronos glTF Blender I/O v3.6.27",
		"version":"2.0"
	},
	"extensionsUsed":[
		"KHR_materials_specular",
		"KHR_materials_ior"
	],
	"scene":0,
	"scenes":[
		{
			"name":"Scene",
			"nodes":[
				0,
				1,
				2,
				3,
				4,
				5,
				6,
				7,
				8,
				9,
				10
			]
		}
	],
	"nodes":[
		{
			"mesh":0,
			"name":"Rock",
			"scale":[
				1.4974840879440308,
				1.4974840879440308,
				1.4974840879440308
			],
			"translation":[
				-9.828927040100098,
				1.4253660440444946,
				-0.13505369424819946
			]
		},
		{
			"mesh":1,
			"name":"Rock.001",
			"rotation":[
				-0.929885745048523,
				-0.18947231769561768,
				0.023742077872157097,
				0.3144027292728424
			],
			"scale":[
				0.35222485661506653,
				0.35222485661506653,
				0.35222485661506653
			],
			"translation":[
				-8.43232536315918,
				1.0369110107421875,
				0.10597927868366241
			]
		},
		{
			"mesh":2,
			"name":"Rock.002",
			"rotation":[
				0.26366010308265686,
				-0.03853997960686684,
				0.666214108467102,
				0.6965320110321045
			],
			"scale":[
				0.7626609206199646,
				0.7626609802246094,
				0.7626609802246094
			],
			"translation":[
				-8.120869636535645,
				1.1682392358779907,
				-0.9119793176651001
			]
		},
		{
			"mesh":3,
			"name":"Rock.006",
			"rotation":[
				-0.6956996917724609,
				-0.4067368805408478,
				0.5920864939689636,
				0.000848094467073679
			],
			"scale":[
				0.7443002462387085,
				0.7443002462387085,
				0.7443002462387085
			],
			"translation":[
				-8.490572929382324,
				1.1531152725219727,
				1.2847256660461426
			]
		},
		{
			"mesh":4,
			"name":"Rock.007",
			"rotation":[
				-0.10926506668329239,
				-0.13566045463085175,
				0.5640062093734741,
				0.8071891665458679
			],
			"scale":[
				0.4461003839969635,
				0.4461003839969635,
				0.4461004137992859
			],
			"translation":[
				-9.106809616088867,
				1.143379807472229,
				-1.674269199371338
			]
		},
		{
			"mesh":5,
			"name":"Rock.008",
			"rotation":[
				0.0340426079928875,
				-0.3064403533935547,
				0.6226935386657715,
				0.7191579341888428
			],
			"scale":[
				0.49729910492897034,
				0.4972991347312927,
				0.4972991347312927
			],
			"translation":[
				-10.748478889465332,
				0.8164311647415161,
				-1.1961932182312012
			]
		},
		{
			"mesh":6,
			"name":"Rock.009",
			"rotation":[
				0.1956283152103424,
				0.6036952137947083,
				-0.31546130776405334,
				0.7055251598358154
			],
			"scale":[
				0.4210011065006256,
				0.4210011065006256,
				0.4210011065006256
			],
			"translation":[
				-10.532614707946777,
				1.0369110107421875,
				1.1798609495162964
			]
		},
		{
			"mesh":7,
			"name":"Rock.010",
			"scale":[
				0.9555642008781433,
				0.9555642008781433,
				0.9555642008781433
			],
			"translation":[
				9.555545806884766,
				1.1807187795639038,
				-0.3809451758861542
			]
		},
		{
			"mesh":8,
			"name":"Rock.011",
			"rotation":[
				0,
				0.22401906549930573,
				0,
				0.9745848178863525
			],
			"scale":[
				0.6727583408355713,
				0.6727583408355713,
				0.6727583408355713
			],
			"translation":[
				8.379956245422363,
				1.0375394821166992,
				-1.3827693462371826
			]
		},
		{
			"mesh":9,
			"name":"Rock.012",
			"rotation":[
				-0.929885745048523,
				-0.18947230279445648,
				0.023742077872157097,
				0.31440269947052
			],
			"scale":[
				0.6338257193565369,
				0.6338256597518921,
				0.6338257193565369
			],
			"translation":[
				8.928396224975586,
				1.0369110107421875,
				0.9970404505729675
			]
		},
		{
			"mesh":10,
			"name":"Rock.013",
			"rotation":[
				-0.9301827549934387,
				-0.1985391229391098,
				-0.0033214548602700233,
				0.3087574541568756
			],
			"scale":[
				0.48722314834594727,
				0.4872230291366577,
				0.4872230887413025
			],
			"translation":[
				10.632817268371582,
				1.0369110107421875,
				0.6332498788833618
			]
		}
	],
	"materials":[
		{
			"doubleSided":true,
			"extensions":{
				"KHR_materials_specular":{
					"specularColorFactor":[
						0.49481081688033535,
						0.49481081688033535,
						0.49481081688033535
					]
				},
				"KHR_materials_ior":{
					"ior":1.4500000476837158
				}
			},
			"name":"Rock",
			"pbrMetallicRoughness":{
				"baseColorFactor":[
					0.19598883390426636,
					0.19598883390426636,
					0.19598883390426636,
					1
				],
				"metallicFactor":0,
				"roughnessFactor":0.7834646105766296
			}
		}
	],
	"meshes":[
		{
			"name":"Cube.017",
			"primitives":[
				{
					"attributes":{
						"POSITION":0,
						"NORMAL":1,
						"TEXCOORD_0":2
					},
					"indices":3,
					"material":0
				}
			]
		},
		{
			"name":"Cube.016",
			"primitives":[
				{
					"attributes":{
						"POSITION":4,
						"NORMAL":5,
						"TEXCOORD_0":6
					},
					"indices":7,
					"material":0
				}
			]
		},
		{
			"name":"Cube.018",
			"primitives":[
				{
					"attributes":{
						"POSITION":8,
						"NORMAL":9,
						"TEXCOORD_0":10
					},
					"indices":7,
					"material":0
				}
			]
		},
		{
			"name":"Cube.020",
			"primitives":[
				{
					"attributes":{
						"POSITION":11,
						"NORMAL":12,
						"TEXCOORD_0":13
					},
					"indices":3,
					"material":0
				}
			]
		},
		{
			"name":"Cube.021",
			"primitives":[
				{
					"attributes":{
						"POSITION":14,
						"NORMAL":15,
						"TEXCOORD_0":16
					},
					"indices":3,
					"material":0
				}
			]
		},
		{
			"name":"Cube.024",
			"primitives":[
				{
					"attributes":{
						"POSITION":17,
						"NORMAL":18,
						"TEXCOORD_0":19
					},
					"indices":3,
					"material":0
				}
			]
		},
		{
			"name":"Cube.027",
			"primitives":[
				{
					"attributes":{
						"POSITION":20,
						"NORMAL":21,
						"TEXCOORD_0":22
					},
					"indices":7,
					"material":0
				}
			]
		},
		{
			"name":"Cube.028",
			"primitives":[
				{
					"attributes":{
						"POSITION":23,
						"NORMAL":24,
						"TEXCOORD_0":25
					},
					"indices":3,
					"material":0
				}
			]
		},
		{
			"name":"Cube.029",
			"primitives":[
				{
					"attributes":{
						"POSITION":26,
						"NORMAL":27,
						"TEXCOORD_0":28
					},
					"indices":3,
					"material":0
				}
			]
		},
		{
			"name":"Cube.030",
			"primitives":[
				{
					"attributes":{
						"POSITION":29,
						"NORMAL":30,
						"TEXCOORD_0":31
					},
					"indices":7,
					"material":0
				}
			]
		},
		{
			"name":"Cube.031",
			"primitives":[
				{
					"attributes":{
						"POSITION":32,
						"NORMAL":33,
						"TEXCOORD_0":34
					},
					"indices":7,
					"material":0
				}
			]
		}
	],
	"accessors":[
		{
			"bufferView":0,
			"componentType":5126,
			"count":202,
			"max":[
				0.7790046334266663,
				0.7781645059585571,
				0.7672359943389893
			],
			"min":[
				-0.7410567998886108,
				-0.6525720953941345,
				-0.6891489624977112
			],
			"type":"VEC3"
		},
		{
			"bufferView":1,
			"componentType":5126,
			"count":202,
			"type":"VEC3"
		},
		{
			"bufferView":2,
			"componentType":5126,
			"count":202,
			"type":"VEC2"
		},
		{
			"bufferView":3,
			"componentType":5123,
			"count":390,
			"type":"SCALAR"
		},
		{
			"bufferView":4,
			"componentType":5126,
			"count":186,
			"max":[
				0.7482598423957825,
				0.6222324967384338,
				0.7953596115112305
			],
			"min":[
				-0.6739702820777893,
				-0.7539861798286438,
				-0.78971928358078
			],
			"type":"VEC3"
		},
		{
			"bufferView":5,
			"componentType":5126,
			"count":186,
			"type":"VEC3"
		},
		{
			"bufferView":6,
			"componentType":5126,
			"count":186,
			"type":"VEC2"
		},
		{
			"bufferView":7,
			"componentType":5123,
			"count":384,
			"type":"SCALAR"
		},
		{
			"bufferView":8,
			"componentType":5126,
			"count":186,
			"max":[
				0.7482598423957825,
				0.6222324967384338,
				0.7953596115112305
			],
			"min":[
				-0.6739702820777893,
				-0.7539861798286438,
				-0.78971928358078
			],
			"type":"VEC3"
		},
		{
			"bufferView":9,
			"componentType":5126,
			"count":186,
			"type":"VEC3"
		},
		{
			"bufferView":10,
			"componentType":5126,
			"count":186,
			"type":"VEC2"
		},
		{
			"bufferView":11,
			"componentType":5126,
			"count":202,
			"max":[
				0.7790046334266663,
				0.7781645059585571,
				0.7672359943389893
			],
			"min":[
				-0.7410567998886108,
				-0.6525720953941345,
				-0.6891489624977112
			],
			"type":"VEC3"
		},
		{
			"bufferView":12,
			"componentType":5126,
			"count":202,
			"type":"VEC3"
		},
		{
			"bufferView":13,
			"componentType":5126,
			"count":202,
			"type":"VEC2"
		},
		{
			"bufferView":14,
			"componentType":5126,
			"count":202,
			"max":[
				0.7790046334266663,
				0.7781645059585571,
				0.7672359943389893
			],
			"min":[
				-0.7410567998886108,
				-0.6525720953941345,
				-0.6891489624977112
			],
			"type":"VEC3"
		},
		{
			"bufferView":15,
			"componentType":5126,
			"count":202,
			"type":"VEC3"
		},
		{
			"bufferView":16,
			"componentType":5126,
			"count":202,
			"type":"VEC2"
		},
		{
			"bufferView":17,
			"componentType":5126,
			"count":202,
			"max":[
				0.7790046334266663,
				0.7781645059585571,
				0.7672359943389893
			],
			"min":[
				-0.7410567998886108,
				-0.6525720953941345,
				-0.6891489624977112
			],
			"type":"VEC3"
		},
		{
			"bufferView":18,
			"componentType":5126,
			"count":202,
			"type":"VEC3"
		},
		{
			"bufferView":19,
			"componentType":5126,
			"count":202,
			"type":"VEC2"
		},
		{
			"bufferView":20,
			"componentType":5126,
			"count":186,
			"max":[
				0.7482598423957825,
				0.6222324967384338,
				0.7953596115112305
			],
			"min":[
				-0.6739702820777893,
				-0.7539861798286438,
				-0.78971928358078
			],
			"type":"VEC3"
		},
		{
			"bufferView":21,
			"componentType":5126,
			"count":186,
			"type":"VEC3"
		},
		{
			"bufferView":22,
			"componentType":5126,
			"count":186,
			"type":"VEC2"
		},
		{
			"bufferView":23,
			"componentType":5126,
			"count":202,
			"max":[
				0.7790046334266663,
				0.7781645059585571,
				0.7672359943389893
			],
			"min":[
				-0.7410567998886108,
				-0.6525720953941345,
				-0.6891489624977112
			],
			"type":"VEC3"
		},
		{
			"bufferView":24,
			"componentType":5126,
			"count":202,
			"type":"VEC3"
		},
		{
			"bufferView":25,
			"componentType":5126,
			"count":202,
			"type":"VEC2"
		},
		{
			"bufferView":26,
			"componentType":5126,
			"count":202,
			"max":[
				0.7790046334266663,
				0.7781645059585571,
				0.7672359943389893
			],
			"min":[
				-0.7410567998886108,
				-0.6525720953941345,
				-0.6891489624977112
			],
			"type":"VEC3"
		},
		{
			"bufferView":27,
			"componentType":5126,
			"count":202,
			"type":"VEC3"
		},
		{
			"bufferView":28,
			"componentType":5126,
			"count":202,
			"type":"VEC2"
		},
		{
			"bufferView":29,
			"componentType":5126,
			"count":186,
			"max":[
				0.7482598423957825,
				0.6222324967384338,
				0.7953596115112305
			],
			"min":[
				-0.6739702820777893,
				-0.7539861798286438,
				-0.78971928358078
			],
			"type":"VEC3"
		},
		{
			"bufferView":30,
			"componentType":5126,
			"count":186,
			"type":"VEC3"
		},
		{
			"bufferView":31,
			"componentType":5126,
			"count":186,
			"type":"VEC2"
		},
		{
			"bufferView":32,
			"componentType":5126,
			"count":186,
			"max":[
				0.7482598423957825,
				0.6222324967384338,
				0.7953596115112305
			],
			"min":[
				-0.6739702820777893,
				-0.7539861798286438,
				-0.78971928358078
			],
			"type":"VEC3"
		},
		{
			"bufferView":33,
			"componentType":5126,
			"count":186,
			"type":"VEC3"
		},
		{
			"bufferView":34,
			"componentType":5126,
			"count":186,
			"type":"VEC2"
		}
	],
	"bufferViews":[
		{
			"buffer":0,
			"byteLength":2424,
			"byteOffset":0,
			"target":34962
		},
		{
			"buffer":0,
			"byteLength":2424,
			"byteOffset":2424,
			"target":34962
		},
		{
			"buffer":0,
			"byteLength":1616,
			"byteOffset":4848,
			"target":34962
		},
		{
			"buffer":0,
			"byteLength":780,
			"byteOffset":6464,
			"target":34963
		},
		{
			"buffer":0,
			"byteLength":2232,
			"byteOffset":7244,
			"target":34962
		},
		{
			"buffer":0,
			"byteLength":2232,
			"byteOffset":9476,
			"target":34962
		},
		{
			"buffer":0,
			"byteLength":1488,
			"byteOffset":11708,
			"target":34962
		},
		{
			"buffer":0,
			"byteLength":768,
			"byteOffset":13196,
			"target":34963
		},
		{
			"buffer":0,
			"byteLength":2232,
			"byteOffset":13964,
			"target":34962
		},
		{
			"buffer":0,
			"byteLength":2232,
			"byteOffset":16196,
			"target":34962
		},
		{
			"buffer":0,
			"byteLength":1488,
			"byteOffset":18428,
			"target":34962
		},
		{
			"buffer":0,
			"byteLength":2424,
			"byteOffset":19916,
			"target":34962
		},
		{
			"buffer":0,
			"byteLength":2424,
			"byteOffset":22340,
			"target":34962
		},
		{
			"buffer":0,
			"byteLength":1616,
			"byteOffset":24764,
			"target":34962
		},
		{
			"buffer":0,
			"byteLength":2424,
			"byteOffset":26380,
			"target":34962
		},
		{
			"buffer":0,
			"byteLength":2424,
			"byteOffset":28804,
			"target":34962
		},
		{
			"buffer":0,
			"byteLength":1616,
			"byteOffset":31228,
			"target":34962
		},
		{
			"buffer":0,
			"byteLength":2424,
			"byteOffset":32844,
			"target":34962
		},
		{
			"buffer":0,
			"byteLength":2424,
			"byteOffset":35268,
			"target":34962
		},
		{
			"buffer":0,
			"byteLength":1616,
			"byteOffset":37692,
			"target":34962
		},
		{
			"buffer":0,
			"byteLength":2232,
			"byteOffset":39308,
			"target":34962
		},
		{
			"buffer":0,
			"byteLength":2232,
			"byteOffset":41540,
			"target":34962
		},
		{
			"buffer":0,
			"byteLength":1488,
			"byteOffset":43772,
			"target":34962
		},
		{
			"buffer":0,
			"byteLength":2424,
			"byteOffset":45260,
			"target":34962
		},
		{
			"buffer":0,
			"byteLength":2424,
			"byteOffset":47684,
			"target":34962
		},
		{
			"buffer":0,
			"byteLength":1616,
			"byteOffset":50108,
			"target":34962
		},
		{
			"buffer":0,
			"byteLength":2424,
			"byteOffset":51724,
			"target":34962
		},
		{
			"buffer":0,
			"byteLength":2424,
			"byteOffset":54148,
			"target":34962
		},
		{
			"buffer":0,
			"byteLength":1616,
			"byteOffset":56572,
			"target":34962
		},
		{
			"buffer":0,
			"byteLength":2232,
			"byteOffset":58188,
			"target":34962
		},
		{
			"buffer":0,
			"byteLength":2232,
			"byteOffset":60420,
			"target":34962
		},
		{
			"buffer":0,
			"byteLength":1488,
			"byteOffset":62652,
			"target":34962
		},
		{
			"buffer":0,
			"byteLength":2232,
			"byteOffset":64140,
			"target":34962
		},
		{
			"buffer":0,
			"byteLength":2232,
			"byteOffset":66372,
			"target":34962
		},
		{
			"buffer":0,
			"byteLength":1488,
			"byteOffset":68604,
			"target":34962
		}
	],
	"buffers":[
		{
			"byteLength":70092,
			"uri":"data:application/octet-stream;base64,"
		}
	]
}
