{
	"asset":{
		"generator":"Khronos glTF Blender I/O v3.6.27",
		"version":"2.0"
	},
	"scene":0,
	"scenes":[
		{
			"name":"Scene",
			"nodes":[
				0
			]
		}
	],
	"nodes":[
		{
			"mesh":0,
			"name":"switch",
			"rotation":[
				-0.6961861848831177,
				0,
				-0.7178612351417542,
				0
			],
			"scale":[
				-0.2954070270061493,
				-0.0493781603872776,
				-0.45233210921287537
			],
			"translation":[
				0.20097129046916962,
				0.9047466516494751,
				1.8800091743469238
			]
		}
	],
	"materials":[
		{
			"doubleSided":true,
			"name":"MachineDefault.003",
			"pbrMetallicRoughness":{
				"baseColorFactor":[
					0.019999999552965164,
					0.019999999552965164,
					0.019999999552965164,
					1
				],
				"roughnessFactor":0.4291340112686157
			}
		},
		{
			"doubleSided":true,
			"name":"MachinePlastic.003",
			"pbrMetallicRoughness":{
				"baseColorFactor":[
					0.05000000074505806,
					0.05000000074505806,
					0.05000000074505806,
					1
				],
				"metallicFactor":0,
				"roughnessFactor":0.44212597608566284
			}
		},
		{
			"doubleSided":true,
			"name":"Buttons.004",
			"pbrMetallicRoughness":{
				"baseColorFactor":[
					1,
					0.0017881096573546529,
					0.0012975562131032348,
					1
				],
				"metallicFactor":0,
				"roughnessFactor":0.17716535925865173
			}
		}
	],
	"meshes":[
		{
			"name":"Cube.011",
			"primitives":[
				{
					"attributes":{
						"POSITION":0,
						"NORMAL":1,
						"TEXCOORD_0":2
					},
					"indices":3,
					"material":0
				},
				{
					"attributes":{
						"POSITION":4,
						"NORMAL":5,
						"TEXCOORD_0":6
					},
					"indices":7,
					"material":1
				},
				{
					"attributes":{
						"POSITION":8,
						"NORMAL":9,
						"TEXCOORD_0":10
					},
					"indices":11,
					"material":2
				}
			]
		}
	],
	"accessors":[
		{
			"bufferView":0,
			"componentType":5126,
			"count":84,
			"max":[
				0.7734509110450745,
				0.9999999403953552,
				1.6855792999267578
			],
			"min":[
				-0.9065356850624084,
				-0.5964058041572571,
				-0.773450493812561
			],
			"type":"VEC3"
		},
		{
			"bufferView":1,
			"componentType":5126,
			"count":84,
			"type":"VEC3"
		},
		{
			"bufferView":2,
			"componentType":5126,
			"count":84,
			"type":"VEC2"
		},
		{
			"bufferView":3,
			"componentType":5123,
			"count":168,
			"type":"SCALAR"
		},
		{
			"bufferView":4,
			"componentType":5126,
			"count":386,
			"max":[
				1,
				1,
				1.5908203125
			],
			"min":[
				-1,
				-1,
				-1
			],
			"type":"VEC3"
		},
		{
			"bufferView":5,
			"componentType":5126,
			"count":386,
			"type":"VEC3"
		},
		{
			"bufferView":6,
			"componentType":5126,
			"count":386,
			"type":"VEC2"
		},
		{
			"bufferView":7,
			"componentType":5123,
			"count":1092,
			"type":"SCALAR"
		},
		{
			"bufferView":8,
			"componentType":5126,
			"count":710,
			"max":[
				0.551490843296051,
				3.371110439300537,
				1.62699294090271
			],
			"min":[
				-0.9238678812980652,
				-0.6279720067977905,
				-0.36379843950271606
			],
			"type":"VEC3"
		},
		{
			"bufferView":9,
			"componentType":5126,
			"count":710,
			"type":"VEC3"
		},
		{
			"bufferView":10,
			"componentType":5126,
			"count":710,
			"type":"VEC2"
		},
		{
			"bufferView":11,
			"componentType":5123,
			"count":1044,
			"type":"SCALAR"
		}
	],
	"bufferViews":[
		{
			"buffer":0,
			"byteLength":1008,
			"byteOffset":0,
			"target":34962
		},
		{
			"buffer":0,
			"byteLength":1008,
			"byteOffset":1008,
			"target":34962
		},
		{
			"buffer":0,
			"byteLength":672,
			"byteOffset":2016,
			"target":34962
		},
		{
			"buffer":0,
			"byteLength":336,
			"byteOffset":2688,
			"target":34963
		},
		{
			"buffer":0,
			"byteLength":4632,
			"byteOffset":3024,
			"target":34962
		},
		{
			"buffer":0,
			"byteLength":4632,
			"byteOffset":7656,
			"target":34962
		},
		{
			"buffer":0,
			"byteLength":3088,
			"byteOffset":12288,
			"target":34962
		},
		{
			"buffer":0,
			"byteLength":2184,
			"byteOffset":15376,
			"target":34963
		},
		{
			"buffer":0,
			"byteLength":8520,
			"byteOffset":17560,
			"target":34962
		},
		{
			"buffer":0,
			"byteLength":8520,
			"byteOffset":26080,
			"target":34962
		},
		{
			"buffer":0,
			"byteLength":5680,
			"byteOffset":34600,
			"target":34962
		},
		{
			"buffer":0,
			"byteLength":2088,
			"byteOffset":40280,
			"target":34963
		}
	],
	"buffers":[
		{
			"byteLength":42368,
			"uri":"data:application/octet-stream;base64,"
		}
	]
}
