{
	"asset":{
		"generator":"Khronos glTF Blender I/O v3.6.27",
		"version":"2.0"
	},
	"extensionsUsed":[
		"KHR_materials_specular",
		"KHR_materials_ior"
	],
	"scene":0,
	"scenes":[
		{
			"name":"Scene",
			"nodes":[
				0,
				1,
				2,
				3,
				4,
				5,
				6
			]
		}
	],
	"nodes":[
		{
			"mesh":0,
			"name":"Axe",
			"rotation":[
				0.2921697497367859,
				-0.4228943884372711,
				0.5491690039634705,
				0.658946692943573
			],
			"translation":[
				-5.767535209655762,
				1.987572193145752,
				-6.615462303161621
			]
		},
		{
			"mesh":1,
			"name":"ShieldCircular",
			"rotation":[
				-0.057986628264188766,
				-0.417822927236557,
				-0.4306873381137848,
				0.7978534698486328
			],
			"scale":[
				0.13461877405643463,
				0.13461877405643463,
				0.13461877405643463
			],
			"translation":[
				-3.091224193572998,
				1.6205382347106934,
				-8.286676406860352
			]
		},
		{
			"mesh":2,
			"name":"Bow",
			"rotation":[
				0.4256300628185272,
				0.6256805658340454,
				0.4094771444797516,
				0.5095991492271423
			],
			"scale":[
				1.1460933685302734,
				1.1460932493209839,
				1.146093487739563
			],
			"translation":[
				3.967153549194336,
				1.5397624969482422,
				6.540090084075928
			]
		},
		{
			"mesh":3,
			"name":"Arrow",
			"rotation":[
				0,
				0.8328360915184021,
				0,
				0.5535197257995605
			],
			"translation":[
				4.6100664138793945,
				0.8860701322555542,
				5.880191326141357
			]
		},
		{
			"mesh":4,
			"name":"Arrow.001",
			"rotation":[
				-0.08315509557723999,
				-0.6898527145385742,
				0.0832928717136383,
				0.7143183946609497
			],
			"translation":[
				4.996811866760254,
				0.8801841139793396,
				9.90689468383789
			]
		},
		{
			"mesh":5,
			"name":"Arrow.002",
			"rotation":[
				0.10153619199991226,
				-0.4215465486049652,
				-0.2034321278333664,
				0.8778406977653503
			],
			"translation":[
				6.566543102264404,
				0.8976949453353882,
				10.111641883850098
			]
		},
		{
			"mesh":6,
			"name":"Arrow.003",
			"rotation":[
				0.12607207894325256,
				-0.6379923224449158,
				-0.1465979516506195,
				0.7453728318214417
			],
			"translation":[
				4.041323184967041,
				0.8885775804519653,
				10.589385986328125
			]
		}
	],
	"materials":[
		{
			"doubleSided":true,
			"extensions":{
				"KHR_materials_specular":{
					"specularColorFactor":[
						0.5321550841458423,
						0.5321550841458423,
						0.5321550841458423
					]
				},
				"KHR_materials_ior":{
					"ior":1.4500000476837158
				}
			},
			"name":"Metal",
			"pbrMetallicRoughness":{
				"baseColorFactor":[
					0.4292263090610504,
					0.4292263090610504,
					0.4292263090610504,
					1
				],
				"roughnessFactor":0.67322838306427
			}
		},
		{
			"doubleSided":true,
			"name":"Wood",
			"pbrMetallicRoughness":{
				"baseColorFactor":[
					0.6618623733520508,
					0.17433905601501465,
					0.06449247151613235,
					1
				],
				"metallicFactor":0,
				"roughnessFactor":0.5
			}
		},
		{
			"doubleSided":true,
			"name":"Grip",
			"pbrMetallicRoughness":{
				"baseColorFactor":[
					0.3588392436504364,
					0.3588392436504364,
					0.3588392436504364,
					1
				],
				"metallicFactor":0,
				"roughnessFactor":0.5
			}
		},
		{
			"doubleSided":true,
			"extensions":{
				"KHR_materials_specular":{
					"specularColorFactor":[
						0.4979850834848615,
						0.4979850834848615,
						0.4979850834848615
					]
				},
				"KHR_materials_ior":{
					"ior":1.4500000476837158
				}
			},
			"name":"String",
			"pbrMetallicRoughness":{
				"baseColorFactor":[
					0.6307565569877625,
					0.630756676197052,
					0.6307572722434998,
					1
				],
				"metallicFactor":0,
				"roughnessFactor":0.665354311466217
			}
		}
	],
	"meshes":[
		{
			"name":"Cube.032",
			"primitives":[
				{
					"attributes":{
						"POSITION":0,
						"NORMAL":1,
						"TEXCOORD_0":2
					},
					"indices":3,
					"material":0
				},
				{
					"attributes":{
						"POSITION":4,
						"NORMAL":5,
						"TEXCOORD_0":6
					},
					"indices":7,
					"material":1
				},
				{
					"attributes":{
						"POSITION":8,
						"NORMAL":9,
						"TEXCOORD_0":10
					},
					"indices":11,
					"material":2
				}
			]
		},
		{
			"name":"Cube.033",
			"primitives":[
				{
					"attributes":{
						"POSITION":12,
						"NORMAL":13,
						"TEXCOORD_0":14
					},
					"indices":15,
					"material":0
				},
				{
					"attributes":{
						"POSITION":16,
						"NORMAL":17,
						"TEXCOORD_0":18
					},
					"indices":19,
					"material":1
				}
			]
		},
		{
			"name":"Cylinder.014",
			"primitives":[
				{
					"attributes":{
						"POSITION":20,
						"NORMAL":21,
						"TEXCOORD_0":22
					},
					"indices":23,
					"material":0
				},
				{
					"attributes":{
						"POSITION":24,
						"NORMAL":25,
						"TEXCOORD_0":26
					},
					"indices":27,
					"material":1
				},
				{
					"attributes":{
						"POSITION":28,
						"NORMAL":29,
						"TEXCOORD_0":30
					},
					"indices":31,
					"material":2
				},
				{
					"attributes":{
						"POSITION":32,
						"NORMAL":33,
						"TEXCOORD_0":34
					},
					"indices":35,
					"material":3
				}
			]
		},
		{
			"name":"Cylinder.020",
			"primitives":[
				{
					"attributes":{
						"POSITION":36,
						"NORMAL":37,
						"TEXCOORD_0":38
					},
					"indices":39,
					"material":0
				},
				{
					"attributes":{
						"POSITION":40,
						"NORMAL":41,
						"TEXCOORD_0":42
					},
					"indices":43,
					"material":1
				},
				{
					"attributes":{
						"POSITION":44,
						"NORMAL":45,
						"TEXCOORD_0":46
					},
					"indices":47,
					"material":2
				}
			]
		},
		{
			"name":"Cylinder.021",
			"primitives":[
				{
					"attributes":{
						"POSITION":48,
						"NORMAL":49,
						"TEXCOORD_0":50
					},
					"indices":39,
					"material":0
				},
				{
					"attributes":{
						"POSITION":51,
						"NORMAL":52,
						"TEXCOORD_0":53
					},
					"indices":43,
					"material":1
				},
				{
					"attributes":{
						"POSITION":54,
						"NORMAL":55,
						"TEXCOORD_0":56
					},
					"indices":47,
					"material":2
				}
			]
		},
		{
			"name":"Cylinder.022",
			"primitives":[
				{
					"attributes":{
						"POSITION":57,
						"NORMAL":58,
						"TEXCOORD_0":59
					},
					"indices":39,
					"material":0
				},
				{
					"attributes":{
						"POSITION":60,
						"NORMAL":61,
						"TEXCOORD_0":62
					},
					"indices":43,
					"material":1
				},
				{
					"attributes":{
						"POSITION":63,
						"NORMAL":64,
						"TEXCOORD_0":65
					},
					"indices":47,
					"material":2
				}
			]
		},
		{
			"name":"Cylinder.023",
			"primitives":[
				{
					"attributes":{
						"POSITION":66,
						"NORMAL":67,
						"TEXCOORD_0":68
					},
					"indices":39,
					"material":0
				},
				{
					"attributes":{
						"POSITION":69,
						"NORMAL":70,
						"TEXCOORD_0":71
					},
					"indices":43,
					"material":1
				},
				{
					"attributes":{
						"POSITION":72,
						"NORMAL":73,
						"TEXCOORD_0":74
					},
					"indices":47,
					"material":2
				}
			]
		}
	],
	"accessors":[
		{
			"bufferView":0,
			"componentType":5126,
			"count":218,
			"max":[
				0.2260056734085083,
				0.49196264147758484,
				0.1978573352098465
			],
			"min":[
				-0.5766626000404358,
				-0.49196264147758484,
				-0.34652259945869446
			],
			"type":"VEC3"
		},
		{
			"bufferView":1,
			"componentType":5126,
			"count":218,
			"type":"VEC3"
		},
		{
			"bufferView":2,
			"componentType":5126,
			"count":218,
			"type":"VEC2"
		},
		{
			"bufferView":3,
			"componentType":5123,
			"count":408,
			"type":"SCALAR"
		},
		{
			"bufferView":4,
			"componentType":5126,
			"count":200,
			"max":[
				0.17769302427768707,
				0.19959186017513275,
				0.13764813542366028
			],
			"min":[
				-0.1561404913663864,
				-1.9242428541183472,
				-0.12471942603588104
			],
			"type":"VEC3"
		},
		{
			"bufferView":5,
			"componentType":5126,
			"count":200,
			"type":"VEC3"
		},
		{
			"bufferView":6,
			"componentType":5126,
			"count":200,
			"type":"VEC2"
		},
		{
			"bufferView":7,
			"componentType":5123,
			"count":312,
			"type":"SCALAR"
		},
		{
			"bufferView":8,
			"componentType":5126,
			"count":416,
			"max":[
				0.18508309125900269,
				-1.0016719102859497,
				0.14669819176197052
			],
			"min":[
				-0.11649765074253082,
				-1.5065009593963623,
				-0.10479361563920975
			],
			"type":"VEC3"
		},
		{
			"bufferView":9,
			"componentType":5126,
			"count":416,
			"type":"VEC3"
		},
		{
			"bufferView":10,
			"componentType":5126,
			"count":416,
			"type":"VEC2"
		},
		{
			"bufferView":11,
			"componentType":5123,
			"count":576,
			"type":"SCALAR"
		},
		{
			"bufferView":12,
			"componentType":5126,
			"count":540,
			"max":[
				7.2421393394470215,
				0.6839399337768555,
				7.428367614746094
			],
			"min":[
				-7.2421393394470215,
				-2.168525218963623,
				-7.428400039672852
			],
			"type":"VEC3"
		},
		{
			"bufferView":13,
			"componentType":5126,
			"count":540,
			"type":"VEC3"
		},
		{
			"bufferView":14,
			"componentType":5126,
			"count":540,
			"type":"VEC2"
		},
		{
			"bufferView":15,
			"componentType":5123,
			"count":1035,
			"type":"SCALAR"
		},
		{
			"bufferView":16,
			"componentType":5126,
			"count":475,
			"max":[
				6.355841636657715,
				0.32565879821777344,
				6.519279479980469
			],
			"min":[
				-6.355841636657715,
				-0.4316110610961914,
				-6.519309997558594
			],
			"type":"VEC3"
		},
		{
			"bufferView":17,
			"componentType":5126,
			"count":475,
			"type":"VEC3"
		},
		{
			"bufferView":18,
			"componentType":5126,
			"count":475,
			"type":"VEC2"
		},
		{
			"bufferView":19,
			"componentType":5123,
			"count":915,
			"type":"SCALAR"
		},
		{
			"bufferView":20,
			"componentType":5126,
			"count":712,
			"max":[
				0.1024855375289917,
				2.03499698638916,
				0.6634246110916138
			],
			"min":[
				-0.1024855375289917,
				-1.8574262857437134,
				-0.46959200501441956
			],
			"type":"VEC3"
		},
		{
			"bufferView":21,
			"componentType":5126,
			"count":712,
			"type":"VEC3"
		},
		{
			"bufferView":22,
			"componentType":5126,
			"count":712,
			"type":"VEC2"
		},
		{
			"bufferView":23,
			"componentType":5123,
			"count":1632,
			"type":"SCALAR"
		},
		{
			"bufferView":24,
			"componentType":5126,
			"count":224,
			"max":[
				0.08585250377655029,
				2.03499698638916,
				0.6634246110916138
			],
			"min":[
				-0.08585250377655029,
				-1.8323607444763184,
				-0.4578135907649994
			],
			"type":"VEC3"
		},
		{
			"bufferView":25,
			"componentType":5126,
			"count":224,
			"type":"VEC3"
		},
		{
			"bufferView":26,
			"componentType":5126,
			"count":224,
			"type":"VEC2"
		},
		{
			"bufferView":27,
			"componentType":5123,
			"count":336,
			"type":"SCALAR"
		},
		{
			"bufferView":28,
			"componentType":5126,
			"count":64,
			"max":[
				0.08585250377655029,
				0.2826591432094574,
				-0.20152780413627625
			],
			"min":[
				-0.08585250377655029,
				-0.2332560122013092,
				-0.4119453430175781
			],
			"type":"VEC3"
		},
		{
			"bufferView":29,
			"componentType":5126,
			"count":64,
			"type":"VEC3"
		},
		{
			"bufferView":30,
			"componentType":5126,
			"count":64,
			"type":"VEC2"
		},
		{
			"bufferView":31,
			"componentType":5123,
			"count":96,
			"type":"SCALAR"
		},
		{
			"bufferView":32,
			"componentType":5126,
			"count":16,
			"max":[
				0.015768535435199738,
				1.990907073020935,
				0.6462665796279907
			],
			"min":[
				-2.0070385353676556e-09,
				-1.8298054933547974,
				0.6147294640541077
			],
			"type":"VEC3"
		},
		{
			"bufferView":33,
			"componentType":5126,
			"count":16,
			"type":"VEC3"
		},
		{
			"bufferView":34,
			"componentType":5126,
			"count":16,
			"type":"VEC2"
		},
		{
			"bufferView":35,
			"componentType":5123,
			"count":24,
			"type":"SCALAR"
		},
		{
			"bufferView":36,
			"componentType":5126,
			"count":42,
			"max":[
				0.07567766308784485,
				0.03578539565205574,
				-1.3556400537490845
			],
			"min":[
				-0.07567766308784485,
				-0.03578565642237663,
				-1.4582611322402954
			],
			"type":"VEC3"
		},
		{
			"bufferView":37,
			"componentType":5126,
			"count":42,
			"type":"VEC3"
		},
		{
			"bufferView":38,
			"componentType":5126,
			"count":42,
			"type":"VEC2"
		},
		{
			"bufferView":39,
			"componentType":5123,
			"count":72,
			"type":"SCALAR"
		},
		{
			"bufferView":40,
			"componentType":5126,
			"count":134,
			"max":[
				0.02517024427652359,
				0.0251702219247818,
				1.6526976823806763
			],
			"min":[
				-0.02517014741897583,
				-0.025170207023620605,
				-1.3556400537490845
			],
			"type":"VEC3"
		},
		{
			"bufferView":41,
			"componentType":5126,
			"count":134,
			"type":"VEC3"
		},
		{
			"bufferView":42,
			"componentType":5126,
			"count":134,
			"type":"VEC2"
		},
		{
			"bufferView":43,
			"componentType":5123,
			"count":264,
			"type":"SCALAR"
		},
		{
			"bufferView":44,
			"componentType":5126,
			"count":40,
			"max":[
				0.13989418745040894,
				0.06531832367181778,
				1.6434746980667114
			],
			"min":[
				-0.13989418745040894,
				5.5261121900684884e-08,
				1.3556400537490845
			],
			"type":"VEC3"
		},
		{
			"bufferView":45,
			"componentType":5126,
			"count":40,
			"type":"VEC3"
		},
		{
			"bufferView":46,
			"componentType":5126,
			"count":40,
			"type":"VEC2"
		},
		{
			"bufferView":47,
			"componentType":5123,
			"count":60,
			"type":"SCALAR"
		},
		{
			"bufferView":48,
			"componentType":5126,
			"count":42,
			"max":[
				0.07567766308784485,
				0.03578539565205574,
				-1.3556400537490845
			],
			"min":[
				-0.07567766308784485,
				-0.03578565642237663,
				-1.4582611322402954
			],
			"type":"VEC3"
		},
		{
			"bufferView":49,
			"componentType":5126,
			"count":42,
			"type":"VEC3"
		},
		{
			"bufferView":50,
			"componentType":5126,
			"count":42,
			"type":"VEC2"
		},
		{
			"bufferView":51,
			"componentType":5126,
			"count":134,
			"max":[
				0.02517024427652359,
				0.0251702219247818,
				1.6526976823806763
			],
			"min":[
				-0.02517014741897583,
				-0.025170207023620605,
				-1.3556400537490845
			],
			"type":"VEC3"
		},
		{
			"bufferView":52,
			"componentType":5126,
			"count":134,
			"type":"VEC3"
		},
		{
			"bufferView":53,
			"componentType":5126,
			"count":134,
			"type":"VEC2"
		},
		{
			"bufferView":54,
			"componentType":5126,
			"count":40,
			"max":[
				0.13989418745040894,
				0.06531832367181778,
				1.6434746980667114
			],
			"min":[
				-0.13989418745040894,
				5.5261121900684884e-08,
				1.3556400537490845
			],
			"type":"VEC3"
		},
		{
			"bufferView":55,
			"componentType":5126,
			"count":40,
			"type":"VEC3"
		},
		{
			"bufferView":56,
			"componentType":5126,
			"count":40,
			"type":"VEC2"
		},
		{
			"bufferView":57,
			"componentType":5126,
			"count":42,
			"max":[
				0.07567766308784485,
				0.03578539565205574,
				-1.3556400537490845
			],
			"min":[
				-0.07567766308784485,
				-0.03578565642237663,
				-1.4582611322402954
			],
			"type":"VEC3"
		},
		{
			"bufferView":58,
			"componentType":5126,
			"count":42,
			"type":"VEC3"
		},
		{
			"bufferView":59,
			"componentType":5126,
			"count":42,
			"type":"VEC2"
		},
		{
			"bufferView":60,
			"componentType":5126,
			"count":134,
			"max":[
				0.02517024427652359,
				0.0251702219247818,
				1.6526976823806763
			],
			"min":[
				-0.02517014741897583,
				-0.025170207023620605,
				-1.3556400537490845
			],
			"type":"VEC3"
		},
		{
			"bufferView":61,
			"componentType":5126,
			"count":134,
			"type":"VEC3"
		},
		{
			"bufferView":62,
			"componentType":5126,
			"count":134,
			"type":"VEC2"
		},
		{
			"bufferView":63,
			"componentType":5126,
			"count":40,
			"max":[
				0.13989418745040894,
				0.06531832367181778,
				1.6434746980667114
			],
			"min":[
				-0.13989418745040894,
				5.5261121900684884e-08,
				1.3556400537490845
			],
			"type":"VEC3"
		},
		{
			"bufferView":64,
			"componentType":5126,
			"count":40,
			"type":"VEC3"
		},
		{
			"bufferView":65,
			"componentType":5126,
			"count":40,
			"type":"VEC2"
		},
		{
			"bufferView":66,
			"componentType":5126,
			"count":42,
			"max":[
				0.07567766308784485,
				0.03578539565205574,
				-1.3556400537490845
			],
			"min":[
				-0.07567766308784485,
				-0.03578565642237663,
				-1.4582611322402954
			],
			"type":"VEC3"
		},
		{
			"bufferView":67,
			"componentType":5126,
			"count":42,
			"type":"VEC3"
		},
		{
			"bufferView":68,
			"componentType":5126,
			"count":42,
			"type":"VEC2"
		},
		{
			"bufferView":69,
			"componentType":5126,
			"count":134,
			"max":[
				0.02517024427652359,
				0.0251702219247818,
				1.6526976823806763
			],
			"min":[
				-0.02517014741897583,
				-0.025170207023620605,
				-1.3556400537490845
			],
			"type":"VEC3"
		},
		{
			"bufferView":70,
			"componentType":5126,
			"count":134,
			"type":"VEC3"
		},
		{
			"bufferView":71,
			"componentType":5126,
			"count":134,
			"type":"VEC2"
		},
		{
			"bufferView":72,
			"componentType":5126,
			"count":40,
			"max":[
				0.13989418745040894,
				0.06531832367181778,
				1.6434746980667114
			],
			"min":[
				-0.13989418745040894,
				5.5261121900684884e-08,
				1.3556400537490845
			],
			"type":"VEC3"
		},
		{
			"bufferView":73,
			"componentType":5126,
			"count":40,
			"type":"VEC3"
		},
		{
			"bufferView":74,
			"componentType":5126,
			"count":40,
			"type":"VEC2"
		}
	],
	"bufferViews":[
		{
			"buffer":0,
			"byteLength":2616,
			"byteOffset":0,
			"target":34962
		},
		{
			"buffer":0,
			"byteLength":2616,
			"byteOffset":2616,
			"target":34962
		},
		{
			"buffer":0,
			"byteLength":1744,
			"byteOffset":5232,
			"target":34962
		},
		{
			"buffer":0,
			"byteLength":816,
			"byteOffset":6976,
			"target":34963
		},
		{
			"buffer":0,
			"byteLength":2400,
			"byteOffset":7792,
			"target":34962
		},
		{
			"buffer":0,
			"byteLength":2400,
			"byteOffset":10192,
			"target":34962
		},
		{
			"buffer":0,
			"byteLength":1600,
			"byteOffset":12592,
			"target":34962
		},
		{
			"buffer":0,
			"byteLength":624,
			"byteOffset":14192,
			"target":34963
		},
		{
			"buffer":0,
			"byteLength":4992,
			"byteOffset":14816,
			"target":34962
		},
		{
			"buffer":0,
			"byteLength":4992,
			"byteOffset":19808,
			"target":34962
		},
		{
			"buffer":0,
			"byteLength":3328,
			"byteOffset":24800,
			"target":34962
		},
		{
			"buffer":0,
			"byteLength":1152,
			"byteOffset":28128,
			"target":34963
		},
		{
			"buffer":0,
			"byteLength":6480,
			"byteOffset":29280,
			"target":34962
		},
		{
			"buffer":0,
			"byteLength":6480,
			"byteOffset":35760,
			"target":34962
		},
		{
			"buffer":0,
			"byteLength":4320,
			"byteOffset":42240,
			"target":34962
		},
		{
			"buffer":0,
			"byteLength":2070,
			"byteOffset":46560,
			"target":34963
		},
		{
			"buffer":0,
			"byteLength":5700,
			"byteOffset":48632,
			"target":34962
		},
		{
			"buffer":0,
			"byteLength":5700,
			"byteOffset":54332,
			"target":34962
		},
		{
			"buffer":0,
			"byteLength":3800,
			"byteOffset":60032,
			"target":34962
		},
		{
			"buffer":0,
			"byteLength":1830,
			"byteOffset":63832,
			"target":34963
		},
		{
			"buffer":0,
			"byteLength":8544,
			"byteOffset":65664,
			"target":34962
		},
		{
			"buffer":0,
			"byteLength":8544,
			"byteOffset":74208,
			"target":34962
		},
		{
			"buffer":0,
			"byteLength":5696,
			"byteOffset":82752,
			"target":34962
		},
		{
			"buffer":0,
			"byteLength":3264,
			"byteOffset":88448,
			"target":34963
		},
		{
			"buffer":0,
			"byteLength":2688,
			"byteOffset":91712,
			"target":34962
		},
		{
			"buffer":0,
			"byteLength":2688,
			"byteOffset":94400,
			"target":34962
		},
		{
			"buffer":0,
			"byteLength":1792,
			"byteOffset":97088,
			"target":34962
		},
		{
			"buffer":0,
			"byteLength":672,
			"byteOffset":98880,
			"target":34963
		},
		{
			"buffer":0,
			"byteLength":768,
			"byteOffset":99552,
			"target":34962
		},
		{
			"buffer":0,
			"byteLength":768,
			"byteOffset":100320,
			"target":34962
		},
		{
			"buffer":0,
			"byteLength":512,
			"byteOffset":101088,
			"target":34962
		},
		{
			"buffer":0,
			"byteLength":192,
			"byteOffset":101600,
			"target":34963
		},
		{
			"buffer":0,
			"byteLength":192,
			"byteOffset":101792,
			"target":34962
		},
		{
			"buffer":0,
			"byteLength":192,
			"byteOffset":101984,
			"target":34962
		},
		{
			"buffer":0,
			"byteLength":128,
			"byteOffset":102176,
			"target":34962
		},
		{
			"buffer":0,
			"byteLength":48,
			"byteOffset":102304,
			"target":34963
		},
		{
			"buffer":0,
			"byteLength":504,
			"byteOffset":102352,
			"target":34962
		},
		{
			"buffer":0,
			"byteLength":504,
			"byteOffset":102856,
			"target":34962
		},
		{
			"buffer":0,
			"byteLength":336,
			"byteOffset":103360,
			"target":34962
		},
		{
			"buffer":0,
			"byteLength":144,
			"byteOffset":103696,
			"target":34963
		},
		{
			"buffer":0,
			"byteLength":1608,
			"byteOffset":103840,
			"target":34962
		},
		{
			"buffer":0,
			"byteLength":1608,
			"byteOffset":105448,
			"target":34962
		},
		{
			"buffer":0,
			"byteLength":1072,
			"byteOffset":107056,
			"target":34962
		},
		{
			"buffer":0,
			"byteLength":528,
			"byteOffset":108128,
			"target":34963
		},
		{
			"buffer":0,
			"byteLength":480,
			"byteOffset":108656,
			"target":34962
		},
		{
			"buffer":0,
			"byteLength":480,
			"byteOffset":109136,
			"target":34962
		},
		{
			"buffer":0,
			"byteLength":320,
			"byteOffset":109616,
			"target":34962
		},
		{
			"buffer":0,
			"byteLength":120,
			"byteOffset":109936,
			"target":34963
		},
		{
			"buffer":0,
			"byteLength":504,
			"byteOffset":110056,
			"target":34962
		},
		{
			"buffer":0,
			"byteLength":504,
			"byteOffset":110560,
			"target":34962
		},
		{
			"buffer":0,
			"byteLength":336,
			"byteOffset":111064,
			"target":34962
		},
		{
			"buffer":0,
			"byteLength":1608,
			"byteOffset":111400,
			"target":34962
		},
		{
			"buffer":0,
			"byteLength":1608,
			"byteOffset":113008,
			"target":34962
		},
		{
			"buffer":0,
			"byteLength":1072,
			"byteOffset":114616,
			"target":34962
		},
		{
			"buffer":0,
			"byteLength":480,
			"byteOffset":115688,
			"target":34962
		},
		{
			"buffer":0,
			"byteLength":480,
			"byteOffset":116168,
			"target":34962
		},
		{
			"buffer":0,
			"byteLength":320,
			"byteOffset":116648,
			"target":34962
		},
		{
			"buffer":0,
			"byteLength":504,
			"byteOffset":116968,
			"target":34962
		},
		{
			"buffer":0,
			"byteLength":504,
			"byteOffset":117472,
			"target":34962
		},
		{
			"buffer":0,
			"byteLength":336,
			"byteOffset":117976,
			"target":34962
		},
		{
			"buffer":0,
			"byteLength":1608,
			"byteOffset":118312,
			"target":34962
		},
		{
			"buffer":0,
			"byteLength":1608,
			"byteOffset":119920,
			"target":34962
		},
		{
			"buffer":0,
			"byteLength":1072,
			"byteOffset":121528,
			"target":34962
		},
		{
			"buffer":0,
			"byteLength":480,
			"byteOffset":122600,
			"target":34962
		},
		{
			"buffer":0,
			"byteLength":480,
			"byteOffset":123080,
			"target":34962
		},
		{
			"buffer":0,
			"byteLength":320,
			"byteOffset":123560,
			"target":34962
		},
		{
			"buffer":0,
			"byteLength":504,
			"byteOffset":123880,
			"target":34962
		},
		{
			"buffer":0,
			"byteLength":504,
			"byteOffset":124384,
			"target":34962
		},
		{
			"buffer":0,
			"byteLength":336,
			"byteOffset":124888,
			"target":34962
		},
		{
			"buffer":0,
			"byteLength":1608,
			"byteOffset":125224,
			"target":34962
		},
		{
			"buffer":0,
			"byteLength":1608,
			"byteOffset":126832,
			"target":34962
		},
		{
			"buffer":0,
			"byteLength":1072,
			"byteOffset":128440,
			"target":34962
		},
		{
			"buffer":0,
			"byteLength":480,
			"byteOffset":129512,
			"target":34962
		},
		{
			"buffer":0,
			"byteLength":480,
			"byteOffset":129992,
			"target":34962
		},
		{
			"buffer":0,
			"byteLength":320,
			"byteOffset":130472,
			"target":34962
		}
	],
	"buffers":[
		{
			"byteLength":130792,
			"uri":"data:application/octet-stream;base64,"
		}
	]
}
