{
	"asset":{
		"generator":"Khronos glTF Blender I/O v3.6.27",
		"version":"2.0"
	},
	"extensionsUsed":[
		"KHR_materials_specular",
		"KHR_materials_ior"
	],
	"scene":0,
	"scenes":[
		{
			"name":"Scene",
			"nodes":[
				0,
				1,
				2,
				3,
				4,
				5,
				6,
				7,
				8
			]
		}
	],
	"nodes":[
		{
			"mesh":0,
			"name":"Leaves.002",
			"rotation":[
				0,
				0.02392618916928768,
				0,
				0.9997138381004333
			],
			"scale":[
				1.6659108400344849,
				1.6700865030288696,
				1.6659108400344849
			],
			"translation":[
				-5.3479905128479,
				3.507406711578369,
				9.568697929382324
			]
		},
		{
			"mesh":1,
			"name":"Leaves.003",
			"rotation":[
				0,
				0.1719089150428772,
				0,
				0.9851128458976746
			],
			"scale":[
				1.1802046298980713,
				1.1831626892089844,
				1.1802046298980713
			],
			"translation":[
				6.657496929168701,
				2.693413734436035,
				-8.63361644744873
			]
		},
		{
			"mesh":2,
			"name":"Leaves.001",
			"rotation":[
				0,
				0.04880579560995102,
				0,
				0.9988083839416504
			],
			"scale":[
				0.9622862935066223,
				0.9584478735923767,
				0.9622862935066223
			],
			"translation":[
				3.8173160552978516,
				3.104357957839966,
				-9.442180633544922
			]
		},
		{
			"mesh":3,
			"name":"Leaves.004",
			"rotation":[
				0,
				-0.2591420114040375,
				0,
				0.9658393263816833
			],
			"scale":[
				1.3626853227615356,
				1.3661010265350342,
				1.3626853227615356
			],
			"translation":[
				-2.515885591506958,
				2.9284465312957764,
				8.168181419372559
			]
		},
		{
			"mesh":4,
			"name":"Leaves.005",
			"rotation":[
				0,
				-0.2737695574760437,
				0,
				0.9617953300476074
			],
			"scale":[
				1.4234086275100708,
				1.4269764423370361,
				1.4234086275100708
			],
			"translation":[
				-5.9250264167785645,
				3.0426762104034424,
				6.603642463684082
			]
		},
		{
			"mesh":5,
			"name":"Trunks",
			"rotation":[
				0.6226018667221069,
				-0.6226018667221069,
				-0.33521175384521484,
				0.3352118134498596
			],
			"scale":[
				0.6864079236984253,
				2.497886896133423,
				0.6864079236984253
			],
			"translation":[
				-5.2057085037231445,
				1.3535935878753662,
				-8.354840278625488
			]
		},
		{
			"mesh":6,
			"name":"Truns",
			"rotation":[
				-0.36647829413414,
				0.3683066666126251,
				-0.6037266254425049,
				0.6046139597892761
			],
			"scale":[
				0.48145511746406555,
				1.752049207687378,
				0.4814551770687103
			],
			"translation":[
				-4.255171775817871,
				1.2166640758514404,
				-7.3077592849731445
			]
		},
		{
			"mesh":7,
			"name":"Trunks.001",
			"rotation":[
				-0.690031886100769,
				-0.7111903429031372,
				0.12554673850536346,
				0.04798257350921631
			],
			"scale":[
				0.6864079236984253,
				2.497886896133423,
				0.6864078640937805
			],
			"translation":[
				4.867752552032471,
				1.3535935878753662,
				8.551316261291504
			]
		},
		{
			"mesh":8,
			"name":"Truns.001",
			"rotation":[
				0.7033690214157104,
				-0.6982083320617676,
				-0.10594311356544495,
				0.08095211535692215
			],
			"scale":[
				0.48145508766174316,
				1.7520490884780884,
				0.48145514726638794
			],
			"translation":[
				5.019618511199951,
				1.2166640758514404,
				7.145316123962402
			]
		}
	],
	"materials":[
		{
			"doubleSided":true,
			"extensions":{
				"KHR_materials_specular":{
					"specularColorFactor":[
						0.6255155756296995,
						0.6255155756296995,
						0.6255155756296995
					]
				},
				"KHR_materials_ior":{
					"ior":1.4500000476837158
				}
			},
			"name":"Ground.013",
			"pbrMetallicRoughness":{
				"baseColorFactor":[
					0.2140352874994278,
					0.12368569523096085,
					0.06994281709194183,
					1
				],
				"metallicFactor":0
			}
		},
		{
			"doubleSided":true,
			"extensions":{
				"KHR_materials_specular":{
					"specularColorFactor":[
						0.43879452199002106,
						0.43879452199002106,
						0.43879452199002106
					]
				},
				"KHR_materials_ior":{
					"ior":1.4500000476837158
				}
			},
			"name":"Tree.002",
			"pbrMetallicRoughness":{
				"baseColorFactor":[
					0.010079015977680683,
					0.19598864018917084,
					0.057471778243780136,
					1
				],
				"metallicFactor":0,
				"roughnessFactor":0.8976377844810486
			}
		},
		{
			"doubleSided":true,
			"extensions":{
				"KHR_materials_specular":{
					"specularColorFactor":[
						0.6255155756296995,
						0.6255155756296995,
						0.6255155756296995
					]
				},
				"KHR_materials_ior":{
					"ior":1.4500000476837158
				}
			},
			"name":"Ground.001",
			"pbrMetallicRoughness":{
				"baseColorFactor":[
					0.2140352874994278,
					0.12368569523096085,
					0.06994281709194183,
					1
				],
				"metallicFactor":0
			}
		}
	],
	"meshes":[
		{
			"name":"Cone.005",
			"primitives":[
				{
					"attributes":{
						"POSITION":0,
						"NORMAL":1,
						"TEXCOORD_0":2
					},
					"indices":3,
					"material":0
				},
				{
					"attributes":{
						"POSITION":4,
						"NORMAL":5,
						"TEXCOORD_0":6
					},
					"indices":7,
					"material":1
				}
			]
		},
		{
			"name":"Cone.006",
			"primitives":[
				{
					"attributes":{
						"POSITION":8,
						"NORMAL":9,
						"TEXCOORD_0":10
					},
					"indices":11,
					"material":0
				},
				{
					"attributes":{
						"POSITION":12,
						"NORMAL":13,
						"TEXCOORD_0":14
					},
					"indices":15,
					"material":1
				}
			]
		},
		{
			"name":"Cone.001",
			"primitives":[
				{
					"attributes":{
						"POSITION":16,
						"NORMAL":17,
						"TEXCOORD_0":18
					},
					"indices":19,
					"material":0
				},
				{
					"attributes":{
						"POSITION":20,
						"NORMAL":21,
						"TEXCOORD_0":22
					},
					"indices":23,
					"material":1
				}
			]
		},
		{
			"name":"Cone.002",
			"primitives":[
				{
					"attributes":{
						"POSITION":24,
						"NORMAL":25,
						"TEXCOORD_0":26
					},
					"indices":3,
					"material":0
				},
				{
					"attributes":{
						"POSITION":27,
						"NORMAL":28,
						"TEXCOORD_0":29
					},
					"indices":7,
					"material":1
				}
			]
		},
		{
			"name":"Cone.003",
			"primitives":[
				{
					"attributes":{
						"POSITION":30,
						"NORMAL":31,
						"TEXCOORD_0":32
					},
					"indices":3,
					"material":0
				},
				{
					"attributes":{
						"POSITION":33,
						"NORMAL":34,
						"TEXCOORD_0":35
					},
					"indices":7,
					"material":1
				}
			]
		},
		{
			"name":"Cylinder.001",
			"primitives":[
				{
					"attributes":{
						"POSITION":36,
						"NORMAL":37,
						"TEXCOORD_0":38
					},
					"indices":39,
					"material":2
				}
			]
		},
		{
			"name":"Cylinder.002",
			"primitives":[
				{
					"attributes":{
						"POSITION":40,
						"NORMAL":41,
						"TEXCOORD_0":42
					},
					"indices":39,
					"material":2
				}
			]
		},
		{
			"name":"Cylinder.003",
			"primitives":[
				{
					"attributes":{
						"POSITION":43,
						"NORMAL":44,
						"TEXCOORD_0":45
					},
					"indices":46,
					"material":2
				}
			]
		},
		{
			"name":"Cylinder.005",
			"primitives":[
				{
					"attributes":{
						"POSITION":47,
						"NORMAL":48,
						"TEXCOORD_0":49
					},
					"indices":39,
					"material":2
				}
			]
		}
	],
	"accessors":[
		{
			"bufferView":0,
			"componentType":5126,
			"count":72,
			"max":[
				0.17964425683021545,
				-0.8324390053749084,
				0.17964473366737366
			],
			"min":[
				-0.17964425683021545,
				-1.6539850234985352,
				-0.17964377999305725
			],
			"type":"VEC3"
		},
		{
			"bufferView":1,
			"componentType":5126,
			"count":72,
			"type":"VEC3"
		},
		{
			"bufferView":2,
			"componentType":5126,
			"count":72,
			"type":"VEC2"
		},
		{
			"bufferView":3,
			"componentType":5123,
			"count":132,
			"type":"SCALAR"
		},
		{
			"bufferView":4,
			"componentType":5126,
			"count":80,
			"max":[
				0.9844399094581604,
				2.3623569011688232,
				0.990558922290802
			],
			"min":[
				-0.8997151851654053,
				-1,
				-0.8819570541381836
			],
			"type":"VEC3"
		},
		{
			"bufferView":5,
			"componentType":5126,
			"count":80,
			"type":"VEC3"
		},
		{
			"bufferView":6,
			"componentType":5126,
			"count":80,
			"type":"VEC2"
		},
		{
			"bufferView":7,
			"componentType":5123,
			"count":96,
			"type":"SCALAR"
		},
		{
			"bufferView":8,
			"componentType":5126,
			"count":72,
			"max":[
				0.17943060398101807,
				-0.8291480541229248,
				0.1718747764825821
			],
			"min":[
				-0.17943060398101807,
				-1.6600756645202637,
				-0.20903128385543823
			],
			"type":"VEC3"
		},
		{
			"bufferView":9,
			"componentType":5126,
			"count":72,
			"type":"VEC3"
		},
		{
			"bufferView":10,
			"componentType":5126,
			"count":72,
			"type":"VEC2"
		},
		{
			"bufferView":11,
			"componentType":5123,
			"count":132,
			"type":"SCALAR"
		},
		{
			"bufferView":12,
			"componentType":5126,
			"count":80,
			"max":[
				0.8091281652450562,
				2.3613197803497314,
				0.9400272965431213
			],
			"min":[
				-1.0000001192092896,
				-1.020585298538208,
				-0.9616369605064392
			],
			"type":"VEC3"
		},
		{
			"bufferView":13,
			"componentType":5126,
			"count":80,
			"type":"VEC3"
		},
		{
			"bufferView":14,
			"componentType":5126,
			"count":80,
			"type":"VEC2"
		},
		{
			"bufferView":15,
			"componentType":5123,
			"count":96,
			"type":"SCALAR"
		},
		{
			"bufferView":16,
			"componentType":5126,
			"count":72,
			"max":[
				0.28441086411476135,
				-1.2674938440322876,
				0.25955966114997864
			],
			"min":[
				-0.26732608675956726,
				-2.537708044052124,
				-0.31473615765571594
			],
			"type":"VEC3"
		},
		{
			"bufferView":17,
			"componentType":5126,
			"count":72,
			"type":"VEC3"
		},
		{
			"bufferView":18,
			"componentType":5126,
			"count":72,
			"type":"VEC2"
		},
		{
			"bufferView":19,
			"componentType":5123,
			"count":132,
			"type":"SCALAR"
		},
		{
			"bufferView":20,
			"componentType":5126,
			"count":80,
			"max":[
				1.4758683443069458,
				3.6096785068511963,
				1.254224181175232
			],
			"min":[
				-1.480077862739563,
				-1.5601381063461304,
				-1.5698647499084473
			],
			"type":"VEC3"
		},
		{
			"bufferView":21,
			"componentType":5126,
			"count":80,
			"type":"VEC3"
		},
		{
			"bufferView":22,
			"componentType":5126,
			"count":80,
			"type":"VEC2"
		},
		{
			"bufferView":23,
			"componentType":5123,
			"count":96,
			"type":"SCALAR"
		},
		{
			"bufferView":24,
			"componentType":5126,
			"count":72,
			"max":[
				0.17964425683021545,
				-0.8324390053749084,
				0.17964473366737366
			],
			"min":[
				-0.17964425683021545,
				-1.6539850234985352,
				-0.17964377999305725
			],
			"type":"VEC3"
		},
		{
			"bufferView":25,
			"componentType":5126,
			"count":72,
			"type":"VEC3"
		},
		{
			"bufferView":26,
			"componentType":5126,
			"count":72,
			"type":"VEC2"
		},
		{
			"bufferView":27,
			"componentType":5126,
			"count":80,
			"max":[
				0.9844399094581604,
				2.3623569011688232,
				0.990558922290802
			],
			"min":[
				-0.8997151851654053,
				-1,
				-0.8819570541381836
			],
			"type":"VEC3"
		},
		{
			"bufferView":28,
			"componentType":5126,
			"count":80,
			"type":"VEC3"
		},
		{
			"bufferView":29,
			"componentType":5126,
			"count":80,
			"type":"VEC2"
		},
		{
			"bufferView":30,
			"componentType":5126,
			"count":72,
			"max":[
				0.17964425683021545,
				-0.8324390053749084,
				0.17964473366737366
			],
			"min":[
				-0.17964425683021545,
				-1.6539850234985352,
				-0.17964377999305725
			],
			"type":"VEC3"
		},
		{
			"bufferView":31,
			"componentType":5126,
			"count":72,
			"type":"VEC3"
		},
		{
			"bufferView":32,
			"componentType":5126,
			"count":72,
			"type":"VEC2"
		},
		{
			"bufferView":33,
			"componentType":5126,
			"count":80,
			"max":[
				0.9844399094581604,
				2.3623569011688232,
				0.990558922290802
			],
			"min":[
				-0.8997151851654053,
				-1,
				-0.8819570541381836
			],
			"type":"VEC3"
		},
		{
			"bufferView":34,
			"componentType":5126,
			"count":80,
			"type":"VEC3"
		},
		{
			"bufferView":35,
			"componentType":5126,
			"count":80,
			"type":"VEC2"
		},
		{
			"bufferView":36,
			"componentType":5126,
			"count":498,
			"max":[
				0.8872477412223816,
				0.9906147122383118,
				0.8940876722335815
			],
			"min":[
				-0.8940528631210327,
				-0.9860725998878479,
				-0.8958302140235901
			],
			"type":"VEC3"
		},
		{
			"bufferView":37,
			"componentType":5126,
			"count":498,
			"type":"VEC3"
		},
		{
			"bufferView":38,
			"componentType":5126,
			"count":498,
			"type":"VEC2"
		},
		{
			"bufferView":39,
			"componentType":5123,
			"count":978,
			"type":"SCALAR"
		},
		{
			"bufferView":40,
			"componentType":5126,
			"count":498,
			"max":[
				0.8872477412223816,
				0.9906147122383118,
				0.8940876722335815
			],
			"min":[
				-0.8940528631210327,
				-0.9860725998878479,
				-0.8958302140235901
			],
			"type":"VEC3"
		},
		{
			"bufferView":41,
			"componentType":5126,
			"count":498,
			"type":"VEC3"
		},
		{
			"bufferView":42,
			"componentType":5126,
			"count":498,
			"type":"VEC2"
		},
		{
			"bufferView":43,
			"componentType":5126,
			"count":656,
			"max":[
				0.8872477412223816,
				0.9906147122383118,
				0.8940876722335815
			],
			"min":[
				-0.8940528631210327,
				-0.9860725998878479,
				-0.8958302140235901
			],
			"type":"VEC3"
		},
		{
			"bufferView":44,
			"componentType":5126,
			"count":656,
			"type":"VEC3"
		},
		{
			"bufferView":45,
			"componentType":5126,
			"count":656,
			"type":"VEC2"
		},
		{
			"bufferView":46,
			"componentType":5123,
			"count":1290,
			"type":"SCALAR"
		},
		{
			"bufferView":47,
			"componentType":5126,
			"count":498,
			"max":[
				0.8872477412223816,
				0.9906147122383118,
				0.8940876722335815
			],
			"min":[
				-0.8940528631210327,
				-0.9860725998878479,
				-0.8958302140235901
			],
			"type":"VEC3"
		},
		{
			"bufferView":48,
			"componentType":5126,
			"count":498,
			"type":"VEC3"
		},
		{
			"bufferView":49,
			"componentType":5126,
			"count":498,
			"type":"VEC2"
		}
	],
	"bufferViews":[
		{
			"buffer":0,
			"byteLength":864,
			"byteOffset":0,
			"target":34962
		},
		{
			"buffer":0,
			"byteLength":864,
			"byteOffset":864,
			"target":34962
		},
		{
			"buffer":0,
			"byteLength":576,
			"byteOffset":1728,
			"target":34962
		},
		{
			"buffer":0,
			"byteLength":264,
			"byteOffset":2304,
			"target":34963
		},
		{
			"buffer":0,
			"byteLength":960,
			"byteOffset":2568,
			"target":34962
		},
		{
			"buffer":0,
			"byteLength":960,
			"byteOffset":3528,
			"target":34962
		},
		{
			"buffer":0,
			"byteLength":640,
			"byteOffset":4488,
			"target":34962
		},
		{
			"buffer":0,
			"byteLength":192,
			"byteOffset":5128,
			"target":34963
		},
		{
			"buffer":0,
			"byteLength":864,
			"byteOffset":5320,
			"target":34962
		},
		{
			"buffer":0,
			"byteLength":864,
			"byteOffset":6184,
			"target":34962
		},
		{
			"buffer":0,
			"byteLength":576,
			"byteOffset":7048,
			"target":34962
		},
		{
			"buffer":0,
			"byteLength":264,
			"byteOffset":7624,
			"target":34963
		},
		{
			"buffer":0,
			"byteLength":960,
			"byteOffset":7888,
			"target":34962
		},
		{
			"buffer":0,
			"byteLength":960,
			"byteOffset":8848,
			"target":34962
		},
		{
			"buffer":0,
			"byteLength":640,
			"byteOffset":9808,
			"target":34962
		},
		{
			"buffer":0,
			"byteLength":192,
			"byteOffset":10448,
			"target":34963
		},
		{
			"buffer":0,
			"byteLength":864,
			"byteOffset":10640,
			"target":34962
		},
		{
			"buffer":0,
			"byteLength":864,
			"byteOffset":11504,
			"target":34962
		},
		{
			"buffer":0,
			"byteLength":576,
			"byteOffset":12368,
			"target":34962
		},
		{
			"buffer":0,
			"byteLength":264,
			"byteOffset":12944,
			"target":34963
		},
		{
			"buffer":0,
			"byteLength":960,
			"byteOffset":13208,
			"target":34962
		},
		{
			"buffer":0,
			"byteLength":960,
			"byteOffset":14168,
			"target":34962
		},
		{
			"buffer":0,
			"byteLength":640,
			"byteOffset":15128,
			"target":34962
		},
		{
			"buffer":0,
			"byteLength":192,
			"byteOffset":15768,
			"target":34963
		},
		{
			"buffer":0,
			"byteLength":864,
			"byteOffset":15960,
			"target":34962
		},
		{
			"buffer":0,
			"byteLength":864,
			"byteOffset":16824,
			"target":34962
		},
		{
			"buffer":0,
			"byteLength":576,
			"byteOffset":17688,
			"target":34962
		},
		{
			"buffer":0,
			"byteLength":960,
			"byteOffset":18264,
			"target":34962
		},
		{
			"buffer":0,
			"byteLength":960,
			"byteOffset":19224,
			"target":34962
		},
		{
			"buffer":0,
			"byteLength":640,
			"byteOffset":20184,
			"target":34962
		},
		{
			"buffer":0,
			"byteLength":864,
			"byteOffset":20824,
			"target":34962
		},
		{
			"buffer":0,
			"byteLength":864,
			"byteOffset":21688,
			"target":34962
		},
		{
			"buffer":0,
			"byteLength":576,
			"byteOffset":22552,
			"target":34962
		},
		{
			"buffer":0,
			"byteLength":960,
			"byteOffset":23128,
			"target":34962
		},
		{
			"buffer":0,
			"byteLength":960,
			"byteOffset":24088,
			"target":34962
		},
		{
			"buffer":0,
			"byteLength":640,
			"byteOffset":25048,
			"target":34962
		},
		{
			"buffer":0,
			"byteLength":5976,
			"byteOffset":25688,
			"target":34962
		},
		{
			"buffer":0,
			"byteLength":5976,
			"byteOffset":31664,
			"target":34962
		},
		{
			"buffer":0,
			"byteLength":3984,
			"byteOffset":37640,
			"target":34962
		},
		{
			"buffer":0,
			"byteLength":1956,
			"byteOffset":41624,
			"target":34963
		},
		{
			"buffer":0,
			"byteLength":5976,
			"byteOffset":43580,
			"target":34962
		},
		{
			"buffer":0,
			"byteLength":5976,
			"byteOffset":49556,
			"target":34962
		},
		{
			"buffer":0,
			"byteLength":3984,
			"byteOffset":55532,
			"target":34962
		},
		{
			"buffer":0,
			"byteLength":7872,
			"byteOffset":59516,
			"target":34962
		},
		{
			"buffer":0,
			"byteLength":7872,
			"byteOffset":67388,
			"target":34962
		},
		{
			"buffer":0,
			"byteLength":5248,
			"byteOffset":75260,
			"target":34962
		},
		{
			"buffer":0,
			"byteLength":2580,
			"byteOffset":80508,
			"target":34963
		},
		{
			"buffer":0,
			"byteLength":5976,
			"byteOffset":83088,
			"target":34962
		},
		{
			"buffer":0,
			"byteLength":5976,
			"byteOffset":89064,
			"target":34962
		},
		{
			"buffer":0,
			"byteLength":3984,
			"byteOffset":95040,
			"target":34962
		}
	],
	"buffers":[
		{
			"byteLength":99024,
			"uri":"data:application/octet-stream;base64,"
		}
	]
}
