{
	"asset":{
		"generator":"Khronos glTF Blender I/O v3.6.27",
		"version":"2.0"
	},
	"scene":0,
	"scenes":[
		{
			"name":"Scene",
			"nodes":[
				0,
				1,
				2
			]
		}
	],
	"nodes":[
		{
			"mesh":0,
			"name":"Ring",
			"scale":[
				10,
				0.13022130727767944,
				10
			],
			"translation":[
				0,
				0.5195831656455994,
				0
			]
		},
		{
			"mesh":1,
			"name":"Ring.001",
			"rotation":[
				0,
				-0.9979068636894226,
				0,
				0.06466800719499588
			],
			"scale":[
				7.5,
				0.13022130727767944,
				7.5
			],
			"translation":[
				0,
				0.5195831656455994,
				0
			]
		},
		{
			"mesh":2,
			"name":"Ring.002",
			"rotation":[
				0,
				-0.9996854662895203,
				0,
				0.02507868967950344
			],
			"scale":[
				4,
				0.13022130727767944,
				4
			],
			"translation":[
				0,
				0.5195831656455994,
				0
			]
		}
	],
	"animations":[
		{
			"channels":[
				{
					"sampler":0,
					"target":{
						"node":0,
						"path":"translation"
					}
				},
				{
					"sampler":1,
					"target":{
						"node":0,
						"path":"rotation"
					}
				}
			],
			"name":"Spin",
			"samplers":[
				{
					"input":12,
					"interpolation":"LINEAR",
					"output":13
				},
				{
					"input":12,
					"interpolation":"LINEAR",
					"output":14
				}
			]
		},
		{
			"channels":[
				{
					"sampler":0,
					"target":{
						"node":1,
						"path":"translation"
					}
				},
				{
					"sampler":1,
					"target":{
						"node":1,
						"path":"rotation"
					}
				}
			],
			"name":"Spin.001",
			"samplers":[
				{
					"input":12,
					"interpolation":"LINEAR",
					"output":15
				},
				{
					"input":12,
					"interpolation":"LINEAR",
					"output":16
				}
			]
		},
		{
			"channels":[
				{
					"sampler":0,
					"target":{
						"node":2,
						"path":"translation"
					}
				},
				{
					"sampler":1,
					"target":{
						"node":2,
						"path":"rotation"
					}
				}
			],
			"name":"Spin.002",
			"samplers":[
				{
					"input":12,
					"interpolation":"LINEAR",
					"output":17
				},
				{
					"input":12,
					"interpolation":"LINEAR",
					"output":18
				}
			]
		}
	],
	"materials":[
		{
			"doubleSided":true,
			"name":"Default",
			"pbrMetallicRoughness":{
				"baseColorFactor":[
					0.800000011920929,
					0.800000011920929,
					0.800000011920929,
					1
				],
				"metallicFactor":0,
				"roughnessFactor":0.5
			}
		}
	],
	"meshes":[
		{
			"name":"Cylinder.001",
			"primitives":[
				{
					"attributes":{
						"POSITION":0,
						"NORMAL":1,
						"TEXCOORD_0":2
					},
					"indices":3,
					"material":0
				}
			]
		},
		{
			"name":"Cylinder.002",
			"primitives":[
				{
					"attributes":{
						"POSITION":4,
						"NORMAL":5,
						"TEXCOORD_0":6
					},
					"indices":7,
					"material":0
				}
			]
		},
		{
			"name":"Cylinder.003",
			"primitives":[
				{
					"attributes":{
						"POSITION":8,
						"NORMAL":9,
						"TEXCOORD_0":10
					},
					"indices":11,
					"material":0
				}
			]
		}
	],
	"accessors":[
		{
			"bufferView":0,
			"componentType":5126,
			"count":384,
			"max":[
				0.8660253882408142,
				-18.216655731201172,
				0.977573037147522
			],
			"min":[
				-0.8660253882408142,
				-20.216655731201172,
				-0.977573037147522
			],
			"type":"VEC3"
		},
		{
			"bufferView":1,
			"componentType":5126,
			"count":384,
			"type":"VEC3"
		},
		{
			"bufferView":2,
			"componentType":5126,
			"count":384,
			"type":"VEC2"
		},
		{
			"bufferView":3,
			"componentType":5123,
			"count":576,
			"type":"SCALAR"
		},
		{
			"bufferView":4,
			"componentType":5126,
			"count":380,
			"max":[
				0.8660253882408142,
				-38.09317398071289,
				0.977573037147522
			],
			"min":[
				-0.8660253882408142,
				-40.09317398071289,
				-0.977573037147522
			],
			"type":"VEC3"
		},
		{
			"bufferView":5,
			"componentType":5126,
			"count":380,
			"type":"VEC3"
		},
		{
			"bufferView":6,
			"componentType":5126,
			"count":380,
			"type":"VEC2"
		},
		{
			"bufferView":7,
			"componentType":5123,
			"count":576,
			"type":"SCALAR"
		},
		{
			"bufferView":8,
			"componentType":5126,
			"count":376,
			"max":[
				0.8660253882408142,
				-59.622093200683594,
				0.977573037147522
			],
			"min":[
				-0.8660253882408142,
				-61.622093200683594,
				-0.977573037147522
			],
			"type":"VEC3"
		},
		{
			"bufferView":9,
			"componentType":5126,
			"count":376,
			"type":"VEC3"
		},
		{
			"bufferView":10,
			"componentType":5126,
			"count":376,
			"type":"VEC2"
		},
		{
			"bufferView":11,
			"componentType":5123,
			"count":576,
			"type":"SCALAR"
		},
		{
			"bufferView":12,
			"componentType":5126,
			"count":120,
			"max":[
				5
			],
			"min":[
				0.041666666666666664
			],
			"type":"SCALAR"
		},
		{
			"bufferView":13,
			"componentType":5126,
			"count":120,
			"type":"VEC3"
		},
		{
			"bufferView":14,
			"componentType":5126,
			"count":120,
			"type":"VEC4"
		},
		{
			"bufferView":15,
			"componentType":5126,
			"count":120,
			"type":"VEC3"
		},
		{
			"bufferView":16,
			"componentType":5126,
			"count":120,
			"type":"VEC4"
		},
		{
			"bufferView":17,
			"componentType":5126,
			"count":120,
			"type":"VEC3"
		},
		{
			"bufferView":18,
			"componentType":5126,
			"count":120,
			"type":"VEC4"
		}
	],
	"bufferViews":[
		{
			"buffer":0,
			"byteLength":4608,
			"byteOffset":0,
			"target":34962
		},
		{
			"buffer":0,
			"byteLength":4608,
			"byteOffset":4608,
			"target":34962
		},
		{
			"buffer":0,
			"byteLength":3072,
			"byteOffset":9216,
			"target":34962
		},
		{
			"buffer":0,
			"byteLength":1152,
			"byteOffset":12288,
			"target":34963
		},
		{
			"buffer":0,
			"byteLength":4560,
			"byteOffset":13440,
			"target":34962
		},
		{
			"buffer":0,
			"byteLength":4560,
			"byteOffset":18000,
			"target":34962
		},
		{
			"buffer":0,
			"byteLength":3040,
			"byteOffset":22560,
			"target":34962
		},
		{
			"buffer":0,
			"byteLength":1152,
			"byteOffset":25600,
			"target":34963
		},
		{
			"buffer":0,
			"byteLength":4512,
			"byteOffset":26752,
			"target":34962
		},
		{
			"buffer":0,
			"byteLength":4512,
			"byteOffset":31264,
			"target":34962
		},
		{
			"buffer":0,
			"byteLength":3008,
			"byteOffset":35776,
			"target":34962
		},
		{
			"buffer":0,
			"byteLength":1152,
			"byteOffset":38784,
			"target":34963
		},
		{
			"buffer":0,
			"byteLength":480,
			"byteOffset":39936
		},
		{
			"buffer":0,
			"byteLength":1440,
			"byteOffset":40416
		},
		{
			"buffer":0,
			"byteLength":1920,
			"byteOffset":41856
		},
		{
			"buffer":0,
			"byteLength":1440,
			"byteOffset":43776
		},
		{
			"buffer":0,
			"byteLength":1920,
			"byteOffset":45216
		},
		{
			"buffer":0,
			"byteLength":1440,
			"byteOffset":47136
		},
		{
			"buffer":0,
			"byteLength":1920,
			"byteOffset":48576
		}
	],
	"buffers":[
		{
			"byteLength":50496,
			"uri":"data:application/octet-stream;base64,"
		}
	]
}
