{
	"asset":{
		"generator":"Khronos glTF Blender I/O v3.6.27",
		"version":"2.0"
	},
	"scene":0,
	"scenes":[
		{
			"name":"Scene",
			"nodes":[
				0
			]
		}
	],
	"nodes":[
		{
			"mesh":0,
			"name":"cable",
			"rotation":[
				0,
				-0.7178612947463989,
				0,
				0.6961861848831177
			],
			"scale":[
				2.1662237644195557,
				2.1662237644195557,
				2.1662237644195557
			],
			"translation":[
				-0.7380398511886597,
				1.7120192050933838,
				-0.3264310359954834
			]
		}
	],
	"materials":[
		{
			"doubleSided":true,
			"name":"MachinePlastic.003",
			"pbrMetallicRoughness":{
				"baseColorFactor":[
					0.05000000074505806,
					0.05000000074505806,
					0.05000000074505806,
					1
				],
				"metallicFactor":0,
				"roughnessFactor":0.44212597608566284
			}
		}
	],
	"meshes":[
		{
			"name":"BezierCurve.001",
			"primitives":[
				{
					"attributes":{
						"POSITION":0,
						"NORMAL":1,
						"TEXCOORD_0":2
					},
					"indices":3,
					"material":0
				}
			]
		}
	],
	"accessors":[
		{
			"bufferView":0,
			"componentType":5126,
			"count":2450,
			"max":[
				0.9363435506820679,
				-0.15408150851726532,
				0.7913541793823242
			],
			"min":[
				-0.08113207668066025,
				-0.38637474179267883,
				-0.25254949927330017
			],
			"type":"VEC3"
		},
		{
			"bufferView":1,
			"componentType":5126,
			"count":2450,
			"type":"VEC3"
		},
		{
			"bufferView":2,
			"componentType":5126,
			"count":2450,
			"type":"VEC2"
		},
		{
			"bufferView":3,
			"componentType":5123,
			"count":14400,
			"type":"SCALAR"
		}
	],
	"bufferViews":[
		{
			"buffer":0,
			"byteLength":29400,
			"byteOffset":0,
			"target":34962
		},
		{
			"buffer":0,
			"byteLength":29400,
			"byteOffset":29400,
			"target":34962
		},
		{
			"buffer":0,
			"byteLength":19600,
			"byteOffset":58800,
			"target":34962
		},
		{
			"buffer":0,
			"byteLength":28800,
			"byteOffset":78400,
			"target":34963
		}
	],
	"buffers":[
		{
			"byteLength":107200,
			"uri":"data:application/octet-stream;base64,"
		}
	]
}
