<!--!Font Awesome Free 6.7.2 by @fontawesome - https://fontawesome.com License - https://fontawesome.com/license/free Copyright 2025 Fonticons, Inc.-->

<svg xmlns="http://www.w3.org/2000/svg" viewBox="0 0 576 512">
  <defs>
    <linearGradient id="grad1" x1="0%" y1="0%" x2="100%" y2="100%">
      <stop offset="0%" style="stop-color:#E4F3E3; stop-opacity:1" />
      <stop offset="100%" style="stop-color:#5CA9E9; stop-opacity:1" />
    </linearGradient>
  </defs>
  <path 
    d="M269.4 6C280.5-2 295.5-2 306.6 6l224 160c7.4 5.3 12.2 13.5 13.2 22.5l32 288c1 9-1.9 18.1-8 24.9s-14.7 10.7-23.8 10.7h-80h-28.2c-12.1 0-23.2-6.8-28.6-17.7L306.7 293.5c-1.7-3.4-5.1-5.5-8.8-5.5c-5.5 0-9.9 4.4-9.9 9.9L288 480c0 17.7-14.3 32-32 32h-16H32c-9.1 0-17.8-3.9-23.8-10.7s-9-15.8-8-24.9l32-288c1-9 5.8-17.2 13.2-22.5L269.4 6z"
    fill="url(#grad1)"
  />
</svg>
