{
	"asset":{
		"generator":"Khronos glTF Blender I/O v3.6.27",
		"version":"2.0"
	},
	"scene":0,
	"scenes":[
		{
			"name":"Scene",
			"nodes":[
				0
			]
		}
	],
	"nodes":[
		{
			"mesh":0,
			"name":"MusicBox",
			"rotation":[
				0.015607667155563831,
				0.03105410560965538,
				0.17050112783908844,
				0.9847443699836731
			],
			"scale":[
				0.29747626185417175,
				0.7280899882316589,
				1.415395975112915
			],
			"translation":[
				4.625575065612793,
				1.5730910301208496,
				7.995715618133545
			]
		}
	],
	"materials":[
		{
			"doubleSided":true,
			"name":"Default-Plastic",
			"pbrMetallicRoughness":{
				"baseColorFactor":[
					0.04970632120966911,
					0.06847802549600601,
					0.3419143557548523,
					1
				],
				"metallicFactor":0,
				"roughnessFactor":0.665354311466217
			}
		},
		{
			"doubleSided":true,
			"name":"MetallicRim",
			"pbrMetallicRoughness":{
				"baseColorFactor":[
					0.6500058770179749,
					0.6500058770179749,
					0.6500064134597778,
					1
				],
				"roughnessFactor":0.17716535925865173
			}
		},
		{
			"doubleSided":true,
			"name":"Cone",
			"pbrMetallicRoughness":{
				"baseColorFactor":[
					0.0005627906648442149,
					0,
					0.031034395098686218,
					1
				],
				"metallicFactor":0,
				"roughnessFactor":0.7598425149917603
			}
		},
		{
			"doubleSided":true,
			"name":"Handle",
			"pbrMetallicRoughness":{
				"baseColorFactor":[
					0.07036003470420837,
					0.07036004215478897,
					0.07036010921001434,
					1
				],
				"metallicFactor":0,
				"roughnessFactor":0.8228346109390259
			}
		},
		{
			"doubleSided":true,
			"name":"Buttons",
			"pbrMetallicRoughness":{
				"baseColorFactor":[
					0,
					0.5271148681640625,
					0.4210855960845947,
					1
				],
				"metallicFactor":0,
				"roughnessFactor":0.5
			}
		},
		{
			"doubleSided":true,
			"name":"BlackScreen",
			"pbrMetallicRoughness":{
				"baseColorFactor":[
					0.0063702864572405815,
					0.0063702864572405815,
					0.0063702864572405815,
					1
				],
				"roughnessFactor":0.16141733527183533
			}
		}
	],
	"meshes":[
		{
			"name":"Cube.019",
			"primitives":[
				{
					"attributes":{
						"POSITION":0,
						"NORMAL":1,
						"TEXCOORD_0":2
					},
					"indices":3,
					"material":0
				},
				{
					"attributes":{
						"POSITION":4,
						"NORMAL":5,
						"TEXCOORD_0":6
					},
					"indices":7,
					"material":1
				},
				{
					"attributes":{
						"POSITION":8,
						"NORMAL":9,
						"TEXCOORD_0":10
					},
					"indices":11,
					"material":2
				},
				{
					"attributes":{
						"POSITION":12,
						"NORMAL":13,
						"TEXCOORD_0":14
					},
					"indices":15,
					"material":3
				},
				{
					"attributes":{
						"POSITION":16,
						"NORMAL":17,
						"TEXCOORD_0":18
					},
					"indices":19,
					"material":4
				},
				{
					"attributes":{
						"POSITION":20,
						"NORMAL":21,
						"TEXCOORD_0":22
					},
					"indices":23,
					"material":5
				}
			]
		}
	],
	"accessors":[
		{
			"bufferView":0,
			"componentType":5126,
			"count":1693,
			"max":[
				1.1290607452392578,
				1.4679890871047974,
				1
			],
			"min":[
				-1,
				-1,
				-1
			],
			"type":"VEC3"
		},
		{
			"bufferView":1,
			"componentType":5126,
			"count":1693,
			"type":"VEC3"
		},
		{
			"bufferView":2,
			"componentType":5126,
			"count":1693,
			"type":"VEC2"
		},
		{
			"bufferView":3,
			"componentType":5123,
			"count":4068,
			"type":"SCALAR"
		},
		{
			"bufferView":4,
			"componentType":5126,
			"count":1643,
			"max":[
				1.1106733083724976,
				1.4679890871047974,
				0.7955562472343445
			],
			"min":[
				-0.3699483275413513,
				-0.6447779536247253,
				-0.7955564260482788
			],
			"type":"VEC3"
		},
		{
			"bufferView":5,
			"componentType":5126,
			"count":1643,
			"type":"VEC3"
		},
		{
			"bufferView":6,
			"componentType":5126,
			"count":1643,
			"type":"VEC2"
		},
		{
			"bufferView":7,
			"componentType":5123,
			"count":3054,
			"type":"SCALAR"
		},
		{
			"bufferView":8,
			"componentType":5126,
			"count":594,
			"max":[
				1.099605679512024,
				0.2840176224708557,
				0.7412430047988892
			],
			"min":[
				0.6489666104316711,
				-0.5778796672821045,
				-0.741267740726471
			],
			"type":"VEC3"
		},
		{
			"bufferView":9,
			"componentType":5126,
			"count":594,
			"type":"VEC3"
		},
		{
			"bufferView":10,
			"componentType":5126,
			"count":594,
			"type":"VEC2"
		},
		{
			"bufferView":11,
			"componentType":5123,
			"count":900,
			"type":"SCALAR"
		},
		{
			"bufferView":12,
			"componentType":5126,
			"count":72,
			"max":[
				0.17362362146377563,
				1.4959793090820312,
				0.6148574948310852
			],
			"min":[
				-0.37905019521713257,
				1.3210288286209106,
				-0.6148574948310852
			],
			"type":"VEC3"
		},
		{
			"bufferView":13,
			"componentType":5126,
			"count":72,
			"type":"VEC3"
		},
		{
			"bufferView":14,
			"componentType":5126,
			"count":72,
			"type":"VEC2"
		},
		{
			"bufferView":15,
			"componentType":5123,
			"count":156,
			"type":"SCALAR"
		},
		{
			"bufferView":16,
			"componentType":5126,
			"count":494,
			"max":[
				0.29201406240463257,
				1.1342787742614746,
				0.4797581732273102
			],
			"min":[
				-0.3483125865459442,
				1,
				-0.5789160132408142
			],
			"type":"VEC3"
		},
		{
			"bufferView":17,
			"componentType":5126,
			"count":494,
			"type":"VEC3"
		},
		{
			"bufferView":18,
			"componentType":5126,
			"count":494,
			"type":"VEC2"
		},
		{
			"bufferView":19,
			"componentType":5123,
			"count":894,
			"type":"SCALAR"
		},
		{
			"bufferView":20,
			"componentType":5126,
			"count":74,
			"max":[
				1.1106733083724976,
				0.8105634450912476,
				0.8105634450912476
			],
			"min":[
				0.9070170521736145,
				-0.602254331111908,
				-0.8105634450912476
			],
			"type":"VEC3"
		},
		{
			"bufferView":21,
			"componentType":5126,
			"count":74,
			"type":"VEC3"
		},
		{
			"bufferView":22,
			"componentType":5126,
			"count":74,
			"type":"VEC2"
		},
		{
			"bufferView":23,
			"componentType":5123,
			"count":186,
			"type":"SCALAR"
		}
	],
	"bufferViews":[
		{
			"buffer":0,
			"byteLength":20316,
			"byteOffset":0,
			"target":34962
		},
		{
			"buffer":0,
			"byteLength":20316,
			"byteOffset":20316,
			"target":34962
		},
		{
			"buffer":0,
			"byteLength":13544,
			"byteOffset":40632,
			"target":34962
		},
		{
			"buffer":0,
			"byteLength":8136,
			"byteOffset":54176,
			"target":34963
		},
		{
			"buffer":0,
			"byteLength":19716,
			"byteOffset":62312,
			"target":34962
		},
		{
			"buffer":0,
			"byteLength":19716,
			"byteOffset":82028,
			"target":34962
		},
		{
			"buffer":0,
			"byteLength":13144,
			"byteOffset":101744,
			"target":34962
		},
		{
			"buffer":0,
			"byteLength":6108,
			"byteOffset":114888,
			"target":34963
		},
		{
			"buffer":0,
			"byteLength":7128,
			"byteOffset":120996,
			"target":34962
		},
		{
			"buffer":0,
			"byteLength":7128,
			"byteOffset":128124,
			"target":34962
		},
		{
			"buffer":0,
			"byteLength":4752,
			"byteOffset":135252,
			"target":34962
		},
		{
			"buffer":0,
			"byteLength":1800,
			"byteOffset":140004,
			"target":34963
		},
		{
			"buffer":0,
			"byteLength":864,
			"byteOffset":141804,
			"target":34962
		},
		{
			"buffer":0,
			"byteLength":864,
			"byteOffset":142668,
			"target":34962
		},
		{
			"buffer":0,
			"byteLength":576,
			"byteOffset":143532,
			"target":34962
		},
		{
			"buffer":0,
			"byteLength":312,
			"byteOffset":144108,
			"target":34963
		},
		{
			"buffer":0,
			"byteLength":5928,
			"byteOffset":144420,
			"target":34962
		},
		{
			"buffer":0,
			"byteLength":5928,
			"byteOffset":150348,
			"target":34962
		},
		{
			"buffer":0,
			"byteLength":3952,
			"byteOffset":156276,
			"target":34962
		},
		{
			"buffer":0,
			"byteLength":1788,
			"byteOffset":160228,
			"target":34963
		},
		{
			"buffer":0,
			"byteLength":888,
			"byteOffset":162016,
			"target":34962
		},
		{
			"buffer":0,
			"byteLength":888,
			"byteOffset":162904,
			"target":34962
		},
		{
			"buffer":0,
			"byteLength":592,
			"byteOffset":163792,
			"target":34962
		},
		{
			"buffer":0,
			"byteLength":372,
			"byteOffset":164384,
			"target":34963
		}
	],
	"buffers":[
		{
			"byteLength":164756,
			"uri":"data:application/octet-stream;base64,"
		}
	]
}
