{
	"asset":{
		"generator":"Khronos glTF Blender I/O v3.6.27",
		"version":"2.0"
	},
	"scene":0,
	"scenes":[
		{
			"name":"Scene",
			"nodes":[
				0
			]
		}
	],
	"nodes":[
		{
			"mesh":0,
			"name":"Tree.001",
			"rotation":[
				0,
				0.48372387886047363,
				0,
				0.8752206563949585
			],
			"scale":[
				0.8792246580123901,
				0.8792246580123901,
				0.8792246580123901
			],
			"translation":[
				-6.564253330230713,
				4.2019147872924805,
				-2.6783690452575684
			]
		}
	],
	"materials":[
		{
			"doubleSided":true,
			"name":"Ground.012",
			"pbrMetallicRoughness":{
				"baseColorFactor":[
					0.07036008685827255,
					0.042311377823352814,
					0.025186866521835327,
					1
				],
				"metallicFactor":0,
				"roughnessFactor":0.5
			}
		},
		{
			"doubleSided":true,
			"name":"Tree.001",
			"pbrMetallicRoughness":{
				"baseColorFactor":[
					0.010079015977680683,
					0.19598864018917084,
					0.057471778243780136,
					1
				],
				"metallicFactor":0,
				"roughnessFactor":0.7598425149917603
			}
		}
	],
	"meshes":[
		{
			"name":"Cube.004",
			"primitives":[
				{
					"attributes":{
						"POSITION":0,
						"NORMAL":1,
						"TEXCOORD_0":2
					},
					"indices":3,
					"material":0
				},
				{
					"attributes":{
						"POSITION":4,
						"NORMAL":5,
						"TEXCOORD_0":6
					},
					"indices":7,
					"material":1
				}
			]
		}
	],
	"accessors":[
		{
			"bufferView":0,
			"componentType":5126,
			"count":60,
			"max":[
				0.25879859924316406,
				-0.6817622184753418,
				0.2721169590950012
			],
			"min":[
				-0.25879859924316406,
				-3.938960552215576,
				-0.2721169590950012
			],
			"type":"VEC3"
		},
		{
			"bufferView":1,
			"componentType":5126,
			"count":60,
			"type":"VEC3"
		},
		{
			"bufferView":2,
			"componentType":5126,
			"count":60,
			"type":"VEC2"
		},
		{
			"bufferView":3,
			"componentType":5123,
			"count":108,
			"type":"SCALAR"
		},
		{
			"bufferView":4,
			"componentType":5126,
			"count":512,
			"max":[
				1.2488737106323242,
				1.7559109926223755,
				1.2455641031265259
			],
			"min":[
				-1.2685308456420898,
				-3.04317045211792,
				-1.2718406915664673
			],
			"type":"VEC3"
		},
		{
			"bufferView":5,
			"componentType":5126,
			"count":512,
			"type":"VEC3"
		},
		{
			"bufferView":6,
			"componentType":5126,
			"count":512,
			"type":"VEC2"
		},
		{
			"bufferView":7,
			"componentType":5123,
			"count":768,
			"type":"SCALAR"
		}
	],
	"bufferViews":[
		{
			"buffer":0,
			"byteLength":720,
			"byteOffset":0,
			"target":34962
		},
		{
			"buffer":0,
			"byteLength":720,
			"byteOffset":720,
			"target":34962
		},
		{
			"buffer":0,
			"byteLength":480,
			"byteOffset":1440,
			"target":34962
		},
		{
			"buffer":0,
			"byteLength":216,
			"byteOffset":1920,
			"target":34963
		},
		{
			"buffer":0,
			"byteLength":6144,
			"byteOffset":2136,
			"target":34962
		},
		{
			"buffer":0,
			"byteLength":6144,
			"byteOffset":8280,
			"target":34962
		},
		{
			"buffer":0,
			"byteLength":4096,
			"byteOffset":14424,
			"target":34962
		},
		{
			"buffer":0,
			"byteLength":1536,
			"byteOffset":18520,
			"target":34963
		}
	],
	"buffers":[
		{
			"byteLength":20056,
			"uri":"data:application/octet-stream;base64,"
		}
	]
}
